<svg width="77" height="71" viewBox="0 0 77 71" fill="none" xmlns="http://www.w3.org/2000/svg">
<path d="M73.1429 31.347H59.2109C57.8177 31.347 56.4246 32.3918 56.0762 33.7851L48.762 55.0314L30.9987 2.43814C30.6504 1.04491 29.2572 1.24834e-05 27.864 1.24834e-05C26.4708 1.24834e-05 25.0776 1.04491 24.7293 2.43814L14.9769 31.347H3.48302C1.39322 31.347 0 32.7402 0 34.83C0 36.9198 1.39322 38.313 3.48302 38.313H17.415C18.8082 38.313 20.2014 37.2681 20.5497 35.8749L27.864 14.6286L45.6273 67.5701C45.9756 68.9633 47.3687 70.0082 48.762 70.0082C50.1552 70.0082 51.5483 68.9633 51.8967 67.5701L61.6491 38.6612H73.1429C75.2327 38.6612 76.626 37.268 76.626 35.1782C76.626 33.0884 75.2327 31.347 73.1429 31.347V31.347Z" fill="#2293D7"/>
</svg>
