<svg width="77" height="77" viewBox="0 0 77 77" fill="none" xmlns="http://www.w3.org/2000/svg">
<path d="M38.3129 -2.16685e-06C17.0666 -2.16685e-06 0 17.0667 0 38.3129C0 59.5591 17.0667 76.6258 38.3129 76.6258C59.5591 76.6258 76.6258 59.5591 76.6258 38.3129C76.6258 17.0667 59.5591 -2.16685e-06 38.3129 -2.16685e-06ZM38.3129 69.6598C20.898 69.6598 6.96596 55.7278 6.96596 38.3129C6.96596 20.898 20.898 6.96596 38.3129 6.96596C55.7278 6.96596 69.6598 20.898 69.6598 38.3129C69.6598 55.7278 55.7278 69.6598 38.3129 69.6598V69.6598ZM55.3796 36.9197C55.0313 36.5713 55.0313 36.2231 54.683 35.8748L40.751 21.9428C39.3578 20.5495 37.268 20.5495 35.8749 21.9428C34.4817 23.336 34.4816 25.4258 35.8749 26.8189L43.8857 34.8298H24.381C22.2912 34.8298 20.898 36.223 20.898 38.3128C20.898 40.4026 22.2912 41.7958 24.381 41.7958H43.8857L35.8749 49.8067C34.4816 51.1999 34.4816 53.2897 35.8749 54.6829C36.5714 55.3794 37.6163 55.7278 38.313 55.7278C39.0096 55.7278 40.0544 55.3794 40.7511 54.6829L54.6831 40.7509C55.0314 40.4025 55.3797 40.0543 55.3797 39.706C55.728 38.6611 55.728 37.9645 55.3797 36.9196L55.3796 36.9197Z" fill="#2293D7"/>
</svg>
