<svg width="84" height="84" viewBox="0 0 84 84" fill="none" xmlns="http://www.w3.org/2000/svg">
<path d="M0.181721 41.4651C0.739 38.7344 2.27152 36.8396 4.77927 35.7808L40.2222 21.5702C39.5535 20.4556 39.2191 19.3132 39.2191 18.1429C39.2191 16.3039 39.86 14.7157 41.1417 13.3782L44.7362 9.78375C46.0736 8.502 47.634 7.86113 49.4173 7.86113C51.2006 7.86113 52.761 8.502 54.0985 9.78375L74.1605 29.8458C75.4422 31.1833 76.0831 32.7436 76.0831 34.5269C76.0831 36.3102 75.4422 37.8706 74.1605 39.2081L70.566 42.9697C69.2286 44.14 67.6961 44.7251 65.9685 44.7251C64.6868 44.7251 63.4886 44.3908 62.374 43.722L48.3306 78.6634C47.3832 81.2826 45.4885 82.8709 42.6464 83.4282C42.2006 83.5396 41.699 83.5953 41.1417 83.5953H40.8074C38.7454 83.5953 37.0179 82.843 35.6247 81.3384L2.35511 48.4868C0.348905 46.5363 -0.375558 44.1957 0.181721 41.4651V41.4651ZM5.36442 42.3846C5.19723 43.2762 5.42014 44.0564 6.03315 44.7251L39.2191 77.5767C39.7764 78.134 40.3615 78.4126 40.9745 78.4126H41.6433C42.5349 78.1897 43.2037 77.6325 43.6495 76.7408L55.8539 45.7282C52.6217 42.3288 49.1944 39.9604 45.5721 38.6229C41.9498 37.2855 37.8816 36.366 33.3677 35.8644C28.8537 35.3628 25.4265 34.722 23.0859 33.9418L6.86907 40.4619C6.03315 40.7963 5.5316 41.4372 5.36442 42.3846V42.3846ZM20.9125 44.3908C20.9125 42.9976 21.4419 41.7716 22.5007 40.7127C23.5596 39.6539 24.7856 39.1523 26.1788 39.2081C27.572 39.2638 28.798 39.7654 29.8568 40.7127C30.9157 41.6601 31.4172 42.8861 31.3615 44.3908C31.3057 45.8954 30.8042 47.1214 29.8568 48.0688C28.9094 49.0162 27.6834 49.5456 26.1788 49.6571C24.6741 49.7685 23.4481 49.2391 22.5007 48.0688C21.5534 46.8985 21.024 45.6725 20.9125 44.3908ZM23.5038 44.3908C23.5038 45.171 23.7546 45.8118 24.2562 46.3134C24.7577 46.8149 25.3986 47.0378 26.1788 46.9821C26.959 46.9264 27.572 46.7035 28.0178 46.3134C28.4636 45.9233 28.7144 45.2824 28.7701 44.3908C28.8259 43.4991 28.5751 42.8861 28.0178 42.5517C27.4605 42.2174 26.8475 41.9666 26.1788 41.7994C25.51 41.6322 24.8692 41.883 24.2562 42.5517C23.6432 43.2205 23.3924 43.8335 23.5038 44.3908ZM27.0983 32.3535C28.7701 32.6879 30.9992 33.0501 33.7856 33.4402C37.0736 33.7746 39.6649 34.1368 41.5597 34.5269C43.4544 34.917 45.8786 35.8365 48.8322 37.2855C51.7857 38.7344 54.5164 40.6849 57.0242 43.1369L60.4514 34.6105L65.049 39.2081C65.662 39.8211 66.2471 39.8211 66.8044 39.2081L70.566 35.4464C71.2348 34.8892 71.2348 34.2762 70.566 33.6074L50.3368 13.3782C49.7795 12.8209 49.1665 12.8209 48.4978 13.3782L44.7362 17.1398C44.2346 17.8086 44.2346 18.4216 44.7362 18.9788L49.3337 23.4928L27.0983 32.3535ZM31.3615 60.106C31.3615 59.3258 31.6123 58.685 32.1138 58.1834C32.6154 57.6819 33.2284 57.4311 33.9528 57.4311C34.6773 57.4311 35.3182 57.6819 35.8754 58.1834C36.4327 58.685 36.6835 59.3258 36.6278 60.106C36.572 60.8862 36.3213 61.4992 35.8754 61.9451C35.4296 62.3909 34.7887 62.6417 33.9528 62.6974C33.1169 62.7531 32.5039 62.5023 32.1138 61.9451C31.7237 61.3878 31.4729 60.7748 31.3615 60.106ZM36.6278 48.3196C36.6278 46.4806 37.2408 44.9202 38.4668 43.6384C39.6928 42.3567 41.2532 41.7437 43.1479 41.7994C45.0427 41.8551 46.5752 42.4682 47.7455 43.6384C48.9158 44.8087 49.5566 46.3691 49.6681 48.3196C49.7795 50.2701 49.1387 51.8304 47.7455 53.0007C46.3523 54.171 44.8198 54.784 43.1479 54.8397C41.4761 54.8955 39.9157 54.2825 38.4668 53.0007C37.0179 51.719 36.4049 50.1586 36.6278 48.3196ZM39.2191 48.3196C39.2191 49.4341 39.6092 50.3537 40.3894 51.0781C41.1696 51.8026 42.0891 52.1927 43.1479 52.2484C44.2068 52.3041 45.1263 51.914 45.9065 51.0781C46.6866 50.2422 47.0767 49.3227 47.0767 48.3196C47.0767 47.3165 46.6866 46.397 45.9065 45.5611C45.1263 44.7251 44.2068 44.335 43.1479 44.3908C42.0891 44.4465 41.1696 44.8366 40.3894 45.5611C39.6092 46.2855 39.2191 47.205 39.2191 48.3196V48.3196ZM70.566 6.52367C70.566 4.68465 71.1791 3.12426 72.4051 1.84252C73.6311 0.560782 75.1915 -0.052226 77.0862 0.00350189C78.981 0.0592298 80.5413 0.672238 81.7674 1.84252C82.9934 3.01281 83.6064 4.57319 83.6064 6.52367C83.6064 8.47414 82.9934 10.0345 81.7674 11.2048C80.5413 12.3751 78.981 12.9881 77.0862 13.0438C75.1915 13.0996 73.6311 12.4865 72.4051 11.2048C71.1791 9.92307 70.566 8.36269 70.566 6.52367V6.52367ZM73.1574 20.9015C73.1574 20.1213 73.4082 19.5083 73.9097 19.0624C74.4113 18.6166 75.0243 18.3658 75.7487 18.3101C76.4732 18.2544 77.1141 18.5052 77.6714 19.0624C78.2286 19.6197 78.4794 20.2327 78.4237 20.9015C78.368 21.5702 78.1172 22.1832 77.6714 22.7405C77.2255 23.2978 76.5847 23.5485 75.7487 23.4928C74.9128 23.4371 74.2998 23.1863 73.9097 22.7405C73.5196 22.2947 73.2689 21.6817 73.1574 20.9015ZM73.1574 6.52367C73.1574 7.63822 73.5475 8.55773 74.3277 9.2822C75.1079 10.0067 76.0274 10.3968 77.0862 10.4525C78.145 10.5082 79.0645 10.1181 79.8447 9.2822C80.6249 8.44628 81.015 7.52677 81.015 6.52367C81.015 5.52056 80.6249 4.60105 79.8447 3.76514C79.0645 2.92922 78.145 2.53912 77.0862 2.59485C76.0274 2.65058 75.1079 3.04067 74.3277 3.76514C73.5475 4.4896 73.1574 5.40911 73.1574 6.52367Z" fill="#2293D7"/>
</svg>
