<svg width="64" height="64" viewBox="0 0 64 64" fill="none" xmlns="http://www.w3.org/2000/svg">
<path d="M21 40V45H43L43.001 39.893C49 36.195 53 29.564 53 22C53 10.402 43.598 1 32 1C20.402 1 11 10.402 11 22C11 29.565 14.998 36.304 21 40Z" stroke="white" stroke-width="2" stroke-miterlimit="10"/>
<path d="M28 45L25 25" stroke="white" stroke-width="2" stroke-miterlimit="10"/>
<path d="M36 45L39 25" stroke="white" stroke-width="2" stroke-miterlimit="10"/>
<path d="M25 26L29 29L32 26L35 29L39 26" stroke="white" stroke-width="2" stroke-miterlimit="10"/>
<path d="M21 45H43V51H21V45Z" stroke="white" stroke-width="2" stroke-miterlimit="10"/>
<path d="M23 51H41V57H23V51Z" stroke="white" stroke-width="2" stroke-miterlimit="10"/>
<path d="M25 57H39V63H25V57Z" stroke="white" stroke-width="2" stroke-miterlimit="10"/>
</svg>
