<svg width="84" height="58" viewBox="0 0 84 58" fill="none" xmlns="http://www.w3.org/2000/svg">
<path d="M0.00288248 49.6535V7.85762C0.00288248 5.68423 0.755209 3.84521 2.25986 2.34056C3.76452 0.835908 5.6314 0.0557179 7.86051 -1.00322e-05H57.5141C59.6875 -1.00322e-05 61.5265 0.78018 63.0311 2.34056C64.5358 3.90094 65.2881 5.73996 65.2881 7.85762V11.1177L72.3098 4.09599C73.4244 3.14861 74.6783 2.67493 76.0715 2.67493H78.3284C79.7774 2.67493 81.0034 3.17648 82.0065 4.17958C83.0096 5.18268 83.539 6.4087 83.5947 7.85762V49.6535C83.5947 51.1582 83.0653 52.4121 82.0065 53.4152C80.9476 54.4183 79.7216 54.892 78.3284 54.8362H76.0715C74.6783 54.8362 73.4244 54.3625 72.3098 53.4152L65.2881 46.3935V49.6535C65.2881 51.8269 64.5358 53.6659 63.0311 55.1706C61.5265 56.6753 59.6875 57.4554 57.5141 57.5112H7.86051C5.68713 57.5112 3.82024 56.731 2.25986 55.1706C0.699481 53.6102 -0.0528454 51.7712 0.00288248 49.6535V49.6535ZM5.26917 49.6535C5.26917 50.4337 5.49208 51.0467 5.9379 51.4926C6.38373 51.9384 7.0246 52.1892 7.86051 52.2449H57.5141C58.2385 52.2449 58.8515 51.9941 59.3531 51.4926C59.8546 50.991 60.1054 50.378 60.1054 49.6535V7.85762C60.1054 7.07743 59.8546 6.46442 59.3531 6.0186C58.8515 5.57278 58.2385 5.322 57.5141 5.26627H7.86051C7.08032 5.26627 6.43945 5.51705 5.9379 6.0186C5.43635 6.52015 5.21344 7.13316 5.26917 7.85762V49.6535V49.6535ZM62.6968 36.6132L75.7371 49.6535H78.3284V7.85762H75.7371L62.6968 20.8979V36.6132V36.6132Z" fill="#2293D7"/>
</svg>
