<svg width="77" height="77" viewBox="0 0 77 77" fill="none" xmlns="http://www.w3.org/2000/svg">
<path d="M38.3129 -6.3202e-05C17.0666 -6.3202e-05 0 17.0666 0 38.3128C0 59.559 17.0667 76.6257 38.3129 76.6257C59.5591 76.6257 76.6258 59.559 76.6258 38.3128C76.6258 17.0666 59.5591 -6.3202e-05 38.3129 -6.3202e-05ZM38.3129 69.6598C20.898 69.6598 6.96596 55.7278 6.96596 38.3128C6.96596 20.8979 20.898 6.9659 38.3129 6.9659C55.7278 6.9659 69.6598 20.8979 69.6598 38.3128C69.6598 55.7278 55.7278 69.6598 38.3129 69.6598V69.6598ZM53.638 42.1441L41.7958 36.223V17.4149C41.7958 15.3251 40.4026 13.9319 38.3128 13.9319C36.223 13.9319 34.8298 15.3251 34.8298 17.4149V38.3128C34.8298 39.7061 35.5264 40.751 36.9196 41.4475L50.8516 48.4135C51.1999 48.7618 51.5482 48.7618 52.2448 48.7618C53.638 48.7618 54.6829 48.0652 55.3795 46.672C56.0761 45.2788 55.3795 43.189 53.638 42.1441V42.1441Z" fill="#B2B3B7"/>
</svg>
