<svg width="84" height="61" viewBox="0 0 84 61" fill="none" xmlns="http://www.w3.org/2000/svg">
<path d="M0 43.1334C0 40.0684 0.752327 37.2263 2.25698 34.6071C3.76163 31.9878 5.85143 29.9259 8.52637 28.4213C8.08054 27.251 7.85763 26.0528 7.85763 24.8268C7.85763 21.5946 9.00005 18.8361 11.2849 16.5512C13.5697 14.2664 16.3283 13.0961 19.5605 13.0404C20.675 13.0404 21.8732 13.2633 23.1549 13.7091C25.0497 9.58523 27.8918 6.26942 31.6813 3.76167C35.4708 1.25391 39.7061 3.61087e-05 44.3873 3.61087e-05C50.5173 3.61087e-05 55.7836 2.0341 60.1861 6.10224C64.5886 10.1704 67.1242 15.2138 67.793 21.2324C72.3627 22.124 76.1243 24.3531 79.0779 27.9197C82.0315 31.4863 83.5361 35.6937 83.5918 40.5421C83.5918 45.9477 81.6971 50.5731 77.9076 54.4183C74.1181 58.2635 69.4927 60.1583 64.0313 60.1026H16.9691C12.288 60.1026 8.30346 58.4307 5.01551 55.0871C1.72756 51.7434 0.0557279 47.7588 0 43.1334H0ZM5.26629 43.1334C5.26629 46.3656 6.40871 49.1242 8.69355 51.409C10.9784 53.6939 13.7369 54.8363 16.9691 54.8363H64.0313C67.9323 54.8363 71.3038 53.4431 74.146 50.6567C76.9881 47.8703 78.3813 44.4988 78.3255 40.5421C78.3255 37.0312 77.2389 33.9662 75.0655 31.347C72.8921 28.7278 70.1336 27.1117 66.7899 26.4986C64.8394 26.0528 63.6691 25.6349 63.279 25.2448C62.8889 24.8547 62.6382 23.6844 62.5267 21.7339C62.0809 17.0528 60.1304 13.124 56.6753 9.94746C53.2201 6.77097 49.1241 5.21059 44.3873 5.26632C40.9321 5.26632 37.6721 6.2137 34.607 8.10844C31.542 10.0032 29.3129 12.5945 27.9197 15.8825C27.3624 16.9413 27.028 17.61 26.9166 17.8887C26.8051 18.1673 26.5822 18.5296 26.2478 18.9754C25.9135 19.4212 25.4955 19.5884 24.994 19.4769C24.4924 19.3655 23.8794 19.1983 23.1549 18.9754C21.9847 18.4181 20.7865 18.1952 19.5605 18.3066C17.7215 18.3066 16.189 18.9197 14.9629 20.1457C13.7369 21.3717 13.0961 22.9321 13.0403 24.8268C13.0403 25.3841 13.1518 26.0528 13.3747 26.833C14.1549 28.672 14.4335 29.898 14.2106 30.5111C13.9877 31.1241 12.9567 31.96 11.1177 33.0188C7.21676 35.3037 5.26629 38.6752 5.26629 43.1334V43.1334Z" fill="#2293D7"/>
</svg>
