<svg width="84" height="74" viewBox="0 0 84 74" fill="none" xmlns="http://www.w3.org/2000/svg">
<path d="M0 31.2633C0 22.5698 4.096 15.1858 12.288 9.11147C20.48 3.03713 30.316 -3.33786e-05 41.7959 -3.33786e-05C53.2759 -3.33786e-05 63.1397 3.03713 71.3874 9.11147C79.6352 15.1858 83.7033 22.5698 83.5918 31.2633C83.4804 39.9569 79.4122 47.3687 71.3874 53.4987C63.3626 59.6288 53.4988 62.666 41.7959 62.6103C39.1767 62.6103 36.5018 62.4152 33.7711 62.0251C32.155 63.9756 29.6751 66.149 26.3314 68.5453C22.9878 70.9416 19.5884 72.4741 16.1332 73.1428H15.3809C14.7122 73.1428 14.1549 72.9199 13.7091 72.4741C13.2632 72.0283 13.0403 71.471 13.0403 70.8023C13.0403 70.4679 13.0961 70.1335 13.2075 69.7991C13.2075 69.7434 13.5697 69.1583 14.2942 68.0437C15.0187 66.9292 15.5202 66.1211 15.7989 65.6196C16.0775 65.118 16.4397 64.2821 16.8856 63.1118C17.3314 61.9415 17.6936 60.9384 17.9722 60.1025C18.2509 59.2666 18.3623 58.3749 18.3066 57.4276V57.2604C12.6224 54.3068 8.16414 50.573 4.93192 46.0591C1.6997 41.5451 0.0557279 36.6132 0 31.2633H0ZM5.26629 31.2633C5.26629 35.4429 6.60375 39.4275 9.27869 43.2169C11.9536 47.0064 15.771 50.0993 20.7308 52.4956C22.5698 53.4987 23.4893 55.087 23.4893 57.2604V57.7619C23.4893 60.0468 22.9042 62.6103 21.7339 65.4524C25.0775 63.3904 27.7246 61.1613 29.6751 58.765C30.6782 57.4276 32.0435 56.7588 33.7711 56.7588C33.994 56.7588 34.2169 56.8146 34.4398 56.926C36.9476 57.2604 39.3996 57.4276 41.7959 57.4276C51.9384 57.4276 60.5762 54.8641 67.7094 49.7371C74.8426 44.6101 78.3813 38.4522 78.3255 31.2633C78.2698 24.0744 74.7311 17.9443 67.7094 12.8731C60.6877 7.80187 52.0498 5.23839 41.7959 5.18266C31.542 5.12693 22.9042 7.69041 15.8824 12.8731C8.86073 18.0558 5.32201 24.1859 5.26629 31.2633V31.2633ZM13.0403 31.2633C13.0403 26.3035 15.8824 22.0125 21.5667 18.3902C27.2509 14.7679 33.994 12.9846 41.7959 13.0403C42.6876 13.0403 43.1334 13.4583 43.1334 14.2942C43.1334 15.1301 42.6876 15.5759 41.7959 15.6316C34.8299 15.6316 28.7277 17.2199 23.4893 20.3964C18.2509 23.5729 15.6595 27.1952 15.7153 31.2633C15.7153 32.155 15.2694 32.6008 14.3778 32.6008C13.4861 32.6008 13.0403 32.155 13.0403 31.2633V31.2633Z" fill="#2293D7"/>
</svg>
