<svg width="40" height="44" viewBox="0 0 40 44" fill="none" xmlns="http://www.w3.org/2000/svg">
<path d="M37.82 41.9995C35.8597 43.9598 32.6832 43.9598 30.7272 41.9995L19.6472 29.3354L8.56708 41.9954C6.60684 43.9556 3.43035 43.9556 1.47435 41.9954C-0.485898 40.0351 -0.485898 36.8586 1.47435 34.9026L13.0017 21.7369L1.47018 8.56289C-0.490061 6.60264 -0.490061 3.43032 1.47018 1.47016C3.43043 -0.490007 6.60275 -0.490089 8.56292 1.47016L19.6472 14.1385L30.7272 1.47016C32.6875 -0.490089 35.8598 -0.490089 37.82 1.47016C39.7801 3.4304 39.7802 6.60689 37.82 8.56289L26.2926 21.7369L37.82 34.9026C39.7802 36.8629 39.7802 40.0394 37.82 41.9996V41.9995Z" fill="#E0E0E0"/>
</svg>
