<svg width="74" height="84" viewBox="0 0 74 84" fill="none" xmlns="http://www.w3.org/2000/svg">
<path d="M0 26.0807V18.3066C0 16.8577 0.473687 15.6595 1.42106 14.7122C2.36844 13.7648 3.53872 13.2075 4.93192 13.0403L8.192 3.59445C8.91646 1.19815 10.5326 0 13.0403 0H60.1025C62.6103 0 64.2264 1.19815 64.9509 3.59445L68.2109 13.0403C69.5484 13.1518 70.6908 13.7091 71.6382 14.7122C72.5856 15.7153 73.0871 16.9134 73.1429 18.3066V26.0807C73.1429 27.5296 72.6134 28.7556 71.5546 29.7587C70.4958 30.7618 69.2698 31.2912 67.8766 31.3469H65.118L65.2016 31.5977C65.2574 31.7649 65.2852 31.9042 65.2852 32.0157L60.1025 78.9943C59.8796 80.3318 59.2666 81.4184 58.2635 82.2544C57.2604 83.0903 56.118 83.5361 54.8362 83.5918H18.3066C16.9691 83.5918 15.8267 83.146 14.8793 82.2544C13.932 81.3627 13.319 80.276 13.0403 78.9943L7.85763 32.0157C7.85763 31.9042 7.8855 31.7649 7.94122 31.5977L8.02482 31.3469H5.26629C3.81736 31.3469 2.59135 30.8175 1.58824 29.7587C0.585143 28.6999 0.0557279 27.4738 0 26.0807H0ZM5.26629 26.0807H67.8766V18.3066H5.26629V26.0807V26.0807ZM10.449 13.0403H62.6939L60.1025 5.26629H13.0403L10.449 13.0403ZM13.0403 31.3469L13.8762 39.2046H59.2666L60.1025 31.3469H13.0403V31.3469ZM14.2106 41.7959L17.1363 67.8766H56.0065L58.9322 41.7959H14.2106V41.7959ZM17.4707 70.5515L18.3066 78.4091H54.8362L55.6722 70.5515H17.4707V70.5515Z" fill="#2293D7"/>
</svg>
