<svg width="74" height="84" viewBox="0 0 74 84" fill="none" xmlns="http://www.w3.org/2000/svg">
<path d="M0.00062851 66.6242V16.9707C0.00062851 11.5093 3.65081 7.32974 10.9512 4.43189C18.2515 1.53404 26.8057 0.0572474 36.6139 0.0015195C46.422 -0.0542084 54.9483 1.42258 62.193 4.43189C69.4376 7.4412 73.0878 11.6208 73.1435 16.9707V66.6242C73.1435 72.0855 69.4933 76.2651 62.193 79.163C54.8926 82.0608 46.3662 83.5376 36.6139 83.5934C26.8615 83.6491 18.3072 82.1723 10.9512 79.163C3.59508 76.1537 -0.0550994 71.9741 0.00062851 66.6242V66.6242ZM5.26691 66.6242C5.26691 69.9122 8.30409 72.6986 14.3784 74.9834C20.4528 77.2682 27.8646 78.4107 36.6139 78.4107C45.3631 78.4107 52.7471 77.2682 58.7657 74.9834C64.7843 72.6986 67.8215 69.9122 67.8772 66.6242V56.844C65.3137 59.5189 61.1341 61.6087 55.3384 63.1134C49.5427 64.618 43.3012 65.3425 36.6139 65.2867C29.9265 65.231 23.6571 64.5066 17.8057 63.1134C11.9543 61.7202 7.77467 59.6304 5.26691 56.844V66.6242V66.6242ZM5.26691 50.909C5.26691 54.1969 8.30409 56.9833 14.3784 59.2681C20.4528 61.553 27.8646 62.6954 36.6139 62.6954C45.3631 62.6954 52.7471 61.553 58.7657 59.2681C64.7843 56.9833 67.8215 54.1969 67.8772 50.909V41.1287C65.3137 43.8594 61.1341 45.9492 55.3384 47.3981C49.5427 48.847 43.3012 49.5993 36.6139 49.6551C29.9265 49.7108 23.6571 48.9585 17.8057 47.3981C11.9543 45.8377 7.77467 43.7479 5.26691 41.1287V50.909V50.909ZM5.26691 35.2773C5.26691 38.5095 8.30409 41.268 14.3784 43.5529C20.4528 45.8377 27.8646 46.9801 36.6139 46.9801C45.3631 46.9801 52.7471 45.8377 58.7657 43.5529C64.7843 41.268 67.8215 38.5095 67.8772 35.2773V26.2494C64.645 28.7571 60.1868 30.6797 54.5025 32.0172C48.8183 33.3547 42.8554 33.9955 36.6139 33.9398C30.3723 33.8841 24.3816 33.2432 18.6416 32.0172C12.9016 30.7912 8.4434 28.8686 5.26691 26.2494V35.2773V35.2773ZM5.26691 16.9707C5.26691 20.2586 8.30409 23.045 14.3784 25.3298C20.4528 27.6147 27.8646 28.7571 36.6139 28.7571C45.3631 28.7571 52.7471 27.6147 58.7657 25.3298C64.7843 23.045 67.8215 20.2586 67.8772 16.9707C67.9329 13.6827 64.8958 10.9242 58.7657 8.69507C52.6356 6.46596 45.2517 5.32354 36.6139 5.26781C27.976 5.21208 20.5642 6.3545 14.3784 8.69507C8.19263 11.0356 5.15546 13.7942 5.26691 16.9707V16.9707ZM57.5118 67.8781C57.5118 67.1536 57.7347 66.5406 58.1805 66.0391C58.6264 65.5375 59.2672 65.2867 60.1032 65.2867C60.9391 65.2867 61.5521 65.5375 61.9422 66.0391C62.3323 66.5406 62.583 67.1536 62.6945 67.8781C62.806 68.6026 62.5552 69.2434 61.9422 69.8007C61.3292 70.358 60.7162 70.6088 60.1032 70.553C59.4901 70.4973 58.8493 70.2465 58.1805 69.8007C57.5118 69.3549 57.2889 68.714 57.5118 67.8781ZM57.5118 52.2464C57.5118 51.4662 57.7347 50.8532 58.1805 50.4074C58.6264 49.9616 59.2672 49.7108 60.1032 49.6551C60.9391 49.5993 61.5521 49.8501 61.9422 50.4074C62.3323 50.9647 62.583 51.5777 62.6945 52.2464C62.806 52.9152 62.5552 53.5282 61.9422 54.0854C61.3292 54.6427 60.7162 54.8935 60.1032 54.8378C59.4901 54.782 58.8493 54.5313 58.1805 54.0854C57.5118 53.6396 57.2889 53.0266 57.5118 52.2464ZM57.5118 36.5312C57.5118 35.8067 57.7347 35.1937 58.1805 34.6921C58.6264 34.1906 59.2672 33.9398 60.1032 33.9398C60.9391 33.9398 61.5521 34.1906 61.9422 34.6921C62.3323 35.1937 62.583 35.8067 62.6945 36.5312C62.806 37.2556 62.5552 37.8965 61.9422 38.4538C61.3292 39.011 60.7162 39.2618 60.1032 39.2061C59.4901 39.1504 58.8493 38.8996 58.1805 38.4538C57.5118 38.0079 57.2889 37.3671 57.5118 36.5312Z" fill="#2293D7"/>
</svg>
