<svg width="84" height="55" viewBox="0 0 84 55" fill="none" xmlns="http://www.w3.org/2000/svg">
<path d="M0 44.3873V10.449C0 7.60686 1.0031 5.15483 3.00931 3.0929C5.01551 1.03097 7.4954 2.36916e-06 10.449 2.36916e-06H73.1429C76.0964 2.36916e-06 78.5763 1.03097 80.5825 3.0929C82.5887 5.15483 83.5918 7.60686 83.5918 10.449V44.3873C83.5918 47.3408 82.5887 49.8207 80.5825 51.8269C78.5763 53.8331 76.0964 54.8362 73.1429 54.8362H10.449C7.4954 54.8362 5.01551 53.8331 3.00931 51.8269C1.0031 49.8207 0 47.3408 0 44.3873H0ZM5.26629 44.3873C5.26629 45.8362 5.76784 47.0622 6.77094 48.0653C7.77404 49.0684 9.00005 49.5978 10.449 49.6535H73.1429C74.5361 49.6535 75.7621 49.1241 76.8209 48.0653C77.8797 47.0065 78.3813 45.7805 78.3255 44.3873L57.9291 29.09L46.5607 37.5327C45.1117 38.6473 43.5235 39.2046 41.7959 39.2046C40.0684 39.2046 38.4801 38.6473 37.0312 37.5327L25.6627 29.09L5.26629 44.3873ZM5.26629 41.1272L23.4893 27.4181L5.26629 13.7091V41.1272V41.1272ZM5.26629 10.449L25.6627 25.8299L27.9197 27.4181L38.703 35.6101C39.5947 36.2789 40.6256 36.6132 41.7959 36.6132C42.9662 36.6132 43.9972 36.2789 44.8888 35.6101L78.3255 10.449C78.3255 9.05578 77.824 7.82977 76.8209 6.77094C75.8178 5.71211 74.5918 5.21056 73.1429 5.26628H10.449C9.05578 5.26628 7.82977 5.76784 6.77094 6.77094C5.71211 7.77404 5.21056 9.00006 5.26629 10.449V10.449ZM60.1025 27.4181L78.3255 41.1272V13.7091L60.1025 27.4181Z" fill="#2293D7"/>
</svg>
