<svg width="84" height="84" viewBox="0 0 84 84" fill="none" xmlns="http://www.w3.org/2000/svg">
<path d="M0 61.3564C0 59.5174 0.640871 57.9849 1.92261 56.7589C3.20435 55.5329 4.73687 54.892 6.52016 54.8363H13.5419C14.7679 48.0932 18.028 42.4925 23.3221 38.0343C28.6163 33.5761 34.7742 31.347 41.7959 31.347C47.4802 31.347 52.6629 32.8795 57.344 35.9445C62.0251 39.0095 65.536 43.022 67.8766 47.9817L79.8302 42.1303C80.4989 41.7959 81.1677 41.7402 81.8364 41.9631C82.5051 42.186 82.9788 42.6319 83.2575 43.3006C83.5361 43.9693 83.5918 44.6102 83.4247 45.2232C83.2575 45.8362 82.8116 46.3378 82.0872 46.7279L69.5484 53.0808C69.7713 53.6938 69.9385 54.279 70.05 54.8363H77.0717C78.9107 54.8363 80.4711 55.4771 81.7528 56.7589C83.0346 58.0406 83.6476 59.5731 83.5918 61.3564C83.5918 62.6939 83.146 63.8363 82.2544 64.7837L73.1429 75.0655V77.0717C73.1429 78.9107 72.5298 80.4711 71.3038 81.7528C70.0778 83.0346 68.5174 83.6476 66.6227 83.5919H16.9691C15.1301 83.5919 13.5976 82.9788 12.3716 81.7528C11.1456 80.5268 10.5047 78.9664 10.449 77.0717V75.0655L1.33747 64.7837C0.445823 63.8363 0 62.6939 0 61.3564H0ZM5.26629 61.3564L15.7153 73.1429V77.0717C15.7153 77.9633 16.1332 78.4092 16.9691 78.4092H66.6227C67.4586 78.4092 67.8766 77.9633 67.8766 77.0717V73.1429L78.3255 61.3564C78.3255 60.5205 77.9076 60.1025 77.0717 60.1025H6.52016C5.68424 60.1025 5.26629 60.5205 5.26629 61.3564V61.3564ZM16.1332 54.8363H18.9753C20.1456 49.5421 22.8484 45.1675 27.0838 41.7123C31.3191 38.2572 36.2231 36.5296 41.7959 36.5296C46.4771 36.5296 50.7402 37.8114 54.5855 40.3749C58.4307 42.9384 61.3007 46.282 63.1954 50.4059L65.4524 49.152C63.3905 44.5823 60.2419 40.9043 56.0065 38.1179C51.7712 35.3315 47.0343 33.9383 41.7959 33.9383C35.6101 33.9383 30.0931 35.9445 25.2447 39.9569C20.3964 43.9693 17.3592 48.9291 16.1332 54.8363V54.8363ZM20.7308 30.511C19.8391 28.3377 20.285 25.189 22.0682 21.0652C23.4614 17.6658 23.8237 15.158 23.1549 13.5419H22.9878V13.0403C22.9878 12.2044 23.4336 11.7865 24.3252 11.7865C24.8825 11.7865 25.2726 12.0372 25.4955 12.5388C26.4429 14.8236 26.0528 18.0001 24.3252 22.0683C22.932 25.5234 22.5977 28.059 23.3221 29.6751V30.0095C23.3221 30.9011 22.9042 31.347 22.0682 31.347C21.511 31.347 21.1209 31.124 20.898 30.6782V30.511H20.7308ZM21.5667 54.8363H24.3252C25.4398 51.0468 27.5853 47.926 30.7618 45.474C33.9383 43.022 37.6163 41.7959 41.7959 41.7959C45.474 41.7959 48.8176 42.799 51.8269 44.8052C54.8362 46.8114 57.0375 49.4585 58.4307 52.7465L60.9384 51.5762C59.1552 47.8981 56.5638 44.9167 53.1644 42.6319C49.765 40.347 45.9755 39.2046 41.7959 39.2046C37.0033 39.2046 32.7401 40.6535 29.0064 43.5514C25.2726 46.4492 22.7927 50.2108 21.5667 54.8363V54.8363ZM27.0838 54.8363H29.8423C30.8454 52.44 32.4336 50.5452 34.607 49.152C36.7804 47.7588 39.1767 47.0344 41.7959 46.9786C44.4151 46.9229 46.8114 47.6474 48.9848 49.152C51.1582 50.6567 52.7464 52.5514 53.7496 54.8363H54.1675L56.1737 53.9168C54.9477 51.0746 53.0529 48.7619 50.4895 46.9786C47.926 45.1953 45.0281 44.3316 41.7959 44.3873C38.3965 44.3873 35.3872 45.3625 32.768 47.313C30.1488 49.2635 28.254 51.7712 27.0838 54.8363V54.8363ZM32.8516 54.8363H35.9445C37.5606 53.1087 39.5111 52.2449 41.7959 52.2449C44.0808 52.2449 45.9755 53.1087 47.4802 54.8363H50.7402C48.6783 51.3811 45.6969 49.6536 41.7959 49.6536C37.895 49.6536 34.9135 51.3811 32.8516 54.8363V54.8363ZM39.2046 18.9754V18.8082C38.3129 16.6348 38.6752 13.4583 40.2913 9.27871C41.8516 5.93504 42.2417 3.42729 41.4615 1.75545V1.33749C41.4615 0.44584 41.8516 1.41689e-05 42.6318 1.41689e-05C43.3006 1.41689e-05 43.7185 0.278658 43.8857 0.835937C44.8888 3.12078 44.5266 6.26941 42.799 10.2818C41.3501 13.7927 40.96 16.3562 41.6287 17.9723C41.7402 18.0837 41.7959 18.1952 41.7959 18.3066C41.7959 19.1425 41.3501 19.5605 40.4584 19.5605C39.9569 19.5605 39.5389 19.3655 39.2046 18.9754ZM52.5793 30.1767V30.0095C51.6876 27.8361 52.1334 24.7432 53.9167 20.7308C55.3099 17.2757 55.6164 14.7679 54.8362 13.2075V12.706C54.8362 11.8701 55.2821 11.4521 56.1737 11.4521C56.731 11.4521 57.1211 11.7029 57.344 12.2044C58.2914 14.4335 57.9013 17.61 56.1737 21.7339C54.7248 25.0776 54.3347 27.5853 55.0034 29.2572V29.4243C55.1149 29.5358 55.1706 29.6194 55.1706 29.6751C55.1706 30.5668 54.7527 31.0126 53.9167 31.0126C53.3595 31.0126 52.9694 30.734 52.7464 30.1767H52.5793ZM65.954 54.8363H67.4586C67.4586 54.7248 67.4307 54.6133 67.375 54.5019C67.3193 54.3904 67.2914 54.279 67.2914 54.1675L65.954 54.8363Z" fill="#2293D7"/>
</svg>
