<svg width="81" height="82" viewBox="0 0 81 82" fill="none" xmlns="http://www.w3.org/2000/svg">
<path d="M0 40.459C0 29.2577 3.95668 19.7283 11.87 11.8706C19.7834 4.01299 29.3129 0.0563063 40.4584 0.00057838C51.604 -0.0551495 61.1614 3.90153 69.1304 11.8706C77.0995 19.8397 81.0562 29.3692 81.0005 40.459C80.9448 51.5489 76.9881 61.1062 69.1304 69.131C61.2728 77.1558 51.7155 81.1125 40.4584 81.0011C29.2014 80.8896 19.6719 76.9329 11.87 69.131C4.06814 61.3291 0.111456 51.7718 0 40.459H0ZM5.26629 41.7965C5.65638 51.0473 9.13937 58.9328 15.7153 65.453C18.6131 63.3911 21.6503 61.7192 24.8268 60.4375C22.4305 54.5303 21.1209 48.3167 20.898 41.7965H5.26629ZM5.26629 39.2052H20.898C21.1209 33.4095 22.1518 27.9481 23.9909 22.8211C20.5357 21.428 17.2756 19.5332 14.2106 17.1369C8.52637 23.4342 5.54493 30.7902 5.26629 39.2052V39.2052ZM15.966 15.2143C18.8082 17.3877 21.8175 19.1152 24.994 20.397C27.3903 14.7685 30.6503 9.86442 34.7742 5.68482C27.4739 6.91084 21.2045 10.0873 15.966 15.2143V15.2143ZM17.6379 67.292C22.5419 71.5273 28.254 74.1744 34.7742 75.2332C31.2076 71.6666 28.2819 67.5428 25.9971 62.8616C23.0435 63.9205 20.2571 65.3973 17.6379 67.292ZM23.4893 41.7965C23.7122 47.9823 24.9661 53.9173 27.2509 59.6016C31.0962 58.3755 35.0807 57.6511 39.2046 57.4282V41.7965H23.4893V41.7965ZM23.4893 39.2052H39.2046V26.0812C34.8578 25.914 30.5946 25.106 26.415 23.6571C24.6875 28.5611 23.7122 33.7438 23.4893 39.2052V39.2052ZM27.4181 21.2329C31.2633 22.5146 35.1922 23.267 39.2046 23.4899V5.26687H39.0374C34.0219 9.50219 30.1488 14.8242 27.4181 21.2329V21.2329ZM28.4212 61.8585C31.1519 67.4313 34.6906 72.0567 39.0374 75.7348H39.2046V60.1031C35.3593 60.326 31.7649 60.9112 28.4212 61.8585V61.8585ZM41.7959 75.7348H41.9631C46.3099 72.0567 49.8486 67.4313 52.5793 61.8585C49.1799 60.9112 45.5854 60.326 41.7959 60.1031V75.7348V75.7348ZM41.7959 57.4282C45.9198 57.6511 49.9043 58.3755 53.7496 59.6016C56.0344 53.9173 57.2883 47.9823 57.5112 41.7965H41.7959V57.4282ZM41.7959 39.2052H57.5112C57.2883 33.7438 56.2852 28.5611 54.5019 23.6571C50.378 25.106 46.1427 25.914 41.7959 26.0812V39.2052V39.2052ZM41.7959 23.4899C45.8083 23.267 49.7371 22.5146 53.5824 21.2329C50.8517 14.8242 46.9786 9.50219 41.9631 5.26687H41.7959V23.4899V23.4899ZM46.2263 75.2332C52.7464 74.1744 58.4586 71.5273 63.3626 67.292C60.7434 65.3973 57.957 63.9205 55.0034 62.8616C52.7186 67.5428 49.7929 71.6666 46.2263 75.2332V75.2332ZM46.2263 5.68482C50.3501 9.86442 53.6102 14.7685 56.0065 20.397C59.183 19.1152 62.1645 17.3877 64.9509 15.2143C59.7682 10.0873 53.5266 6.91084 46.2263 5.68482ZM56.1737 60.4375C59.3502 61.7192 62.3874 63.3911 65.2852 65.453C71.8054 58.9328 75.2884 51.0473 75.7342 41.7965H60.1025C59.8796 48.3167 58.57 54.5303 56.1737 60.4375ZM57.0096 22.8211C58.8487 27.9481 59.8796 33.4095 60.1025 39.2052H75.7342C75.3998 30.7902 72.4184 23.4342 66.7899 17.1369C63.7248 19.5332 60.4648 21.428 57.0096 22.8211V22.8211Z" fill="white"/>
</svg>
