<svg width="108" height="69" viewBox="0 0 108 69" fill="none" xmlns="http://www.w3.org/2000/svg">
<path d="M67.0407 34.9414C67.0407 41.4616 65.6753 47.2294 62.9447 52.2449C60.214 57.2604 56.3688 61.2171 51.409 64.1149C46.4492 67.0128 40.7092 68.4339 34.1891 68.3781C29.5636 68.3781 25.1333 67.4865 20.898 65.7032C16.6626 63.9199 13.0125 61.4957 9.94743 58.4307C6.88239 55.3657 4.45823 51.7155 2.67494 47.4802C0.891646 43.2448 0 38.8145 0 34.1891C0 29.5636 0.891646 25.1333 2.67494 20.898C4.45823 16.6626 6.88239 13.0125 9.94743 9.94743C13.0125 6.88239 16.6626 4.45823 20.898 2.67494C25.1333 0.891649 29.5636 2.64665e-06 34.1891 2.64665e-06C43.1055 2.64665e-06 50.7402 2.98144 57.0932 8.94433L47.8145 17.8887C44.1922 14.3778 39.6504 12.6224 34.1891 12.6224C30.3438 12.6224 26.8051 13.5697 23.5729 15.4645C20.3407 17.3592 17.7772 19.9784 15.8824 23.3221C13.9877 26.6658 13.0403 30.2881 13.0403 34.1891C13.0403 38.09 13.9877 41.7123 15.8824 45.056C17.7772 48.3997 20.3407 51.0189 23.5729 52.9136C26.8051 54.8084 30.3438 55.7558 34.1891 55.7558C36.7525 55.7558 39.121 55.3935 41.2944 54.6691C43.4678 53.9446 45.251 53.053 46.6442 51.9941C48.0374 50.9353 49.2635 49.7371 50.3223 48.3997C51.3811 47.0622 52.1334 45.7526 52.5793 44.4709C53.0251 43.1891 53.3595 42.0467 53.5824 41.0436H34.1891V29.2571H66.4555C66.8456 31.2633 67.0407 33.1581 67.0407 34.9414V34.9414ZM107.499 29.2571V39.121H97.7189V48.8176H87.9386V39.121H78.1584V29.2571H87.9386V19.5605H97.7189V29.2571H107.499V29.2571Z" fill="white"/>
</svg>
