<svg width="108" height="69" viewBox="0 0 108 69" fill="none" xmlns="http://www.w3.org/2000/svg">
<path d="M67.0407 34.9413C67.0407 41.4615 65.6753 47.2293 62.9447 52.2448C60.214 57.2603 56.3688 61.217 51.409 64.1149C46.4492 67.0127 40.7092 68.4338 34.1891 68.3781C29.5636 68.3781 25.1333 67.4864 20.898 65.7031C16.6626 63.9198 13.0125 61.4957 9.94743 58.4306C6.88239 55.3656 4.45823 51.7154 2.67494 47.4801C0.891646 43.2448 0 38.8144 0 34.189C0 29.5636 0.891646 25.1332 2.67494 20.8979C4.45823 16.6626 6.88239 13.0124 9.94743 9.94737C13.0125 6.88233 16.6626 4.45817 20.898 2.67488C25.1333 0.891588 29.5636 -5.83885e-05 34.1891 -5.83885e-05C43.1055 -5.83885e-05 50.7402 2.98138 57.0932 8.94427L47.8145 17.8886C44.1922 14.3777 39.6504 12.6223 34.1891 12.6223C30.3438 12.6223 26.8051 13.5697 23.5729 15.4644C20.3407 17.3592 17.7772 19.9784 15.8824 23.3221C13.9877 26.6657 13.0403 30.288 13.0403 34.189C13.0403 38.09 13.9877 41.7123 15.8824 45.0559C17.7772 48.3996 20.3407 51.0188 23.5729 52.9136C26.8051 54.8083 30.3438 55.7557 34.1891 55.7557C36.7525 55.7557 39.121 55.3935 41.2944 54.669C43.4678 53.9445 45.251 53.0529 46.6442 51.9941C48.0374 50.9352 49.2635 49.7371 50.3223 48.3996C51.3811 47.0621 52.1334 45.7525 52.5793 44.4708C53.0251 43.1891 53.3595 42.0466 53.5824 41.0435H34.1891V29.2571H66.4555C66.8456 31.2633 67.0407 33.158 67.0407 34.9413V34.9413ZM107.499 29.2571V39.1209H97.7189V48.8176H87.9386V39.1209H78.1584V29.2571H87.9386V19.5604H97.7189V29.2571H107.499V29.2571Z" fill="#848991"/>
</svg>
