<?xml version="1.0" encoding="UTF-8"?> <svg xmlns="http://www.w3.org/2000/svg" width="234" height="74" viewBox="0 0 234 74"> <g fill="none" fill-rule="evenodd"> <rect width="224" height="65" y="9" fill="#2B2B2B" rx="4"></rect> <path fill="#FF3131" d="M38.130086,49.7043478 L27,49.7043478 L27,33.2710145 L38.130086,33.2710145 L38.130086,35.8086957 L29.8494969,35.8086957 L29.8494969,40.0463768 L37.9596033,40.0463768 L37.9596033,42.584058 L29.8494969,42.584058 L29.8494969,47.1666667 L38.130086,47.1666667 L38.130086,49.7043478 Z M61.4375091,49.7043478 L58.0278547,49.7043478 L53.4735307,43.273913 L48.9192067,49.7043478 L45.5095523,49.7043478 L51.5738661,41.2782609 L45.8748724,33.2710145 L49.2845268,33.2710145 L53.4735307,39.2826087 L57.63818,33.2710145 L61.072189,33.2710145 L55.3488406,41.2536232 L61.4375091,49.7043478 Z M72.1779204,49.7043478 L69.3284235,49.7043478 L69.3284235,33.2710145 L76.4886977,33.2710145 C78.1285873,33.2710145 79.4193721,33.7637632 80.3610909,34.7492754 C81.3028096,35.7347875 81.773662,36.9584468 81.773662,38.4202899 C81.773662,39.8657077 81.3028096,41.0811545 80.3610909,42.0666667 C79.4193721,43.0521788 78.1285873,43.5449275 76.4886977,43.5449275 L72.1779204,43.5449275 L72.1779204,49.7043478 Z M76.0990229,41.0072464 C76.9108494,41.0072464 77.5724781,40.7690845 78.0839288,40.2927536 C78.5953795,39.8164227 78.8511011,39.1922744 78.8511011,38.4202899 C78.8511011,37.6318801 78.5953795,36.9995193 78.0839288,36.5231884 C77.5724781,36.0468575 76.9108494,35.8086957 76.0990229,35.8086957 L72.1779204,35.8086957 L72.1779204,41.0072464 L76.0990229,41.0072464 Z M97.8477468,50 C95.4285038,50 93.4395586,49.1992834 91.8808517,47.5978261 C90.3221448,45.9963688 89.542803,43.9637804 89.542803,41.5 C89.542803,39.0362196 90.3221448,37.0036312 91.8808517,35.4021739 C93.4395586,33.8007166 95.4285038,33 97.8477468,33 C100.26699,33 102.255935,33.8007166 103.814642,35.4021739 C105.373349,37.0036312 106.152691,39.0362196 106.152691,41.5 C106.152691,43.9637804 105.373349,45.9963688 103.814642,47.5978261 C102.255935,49.1992834 100.26699,50 97.8477468,50 Z M97.8477468,47.4376812 C99.4551634,47.4376812 100.754066,46.8751264 101.744495,45.75 C102.734923,44.6248736 103.23013,43.2082211 103.23013,41.5 C103.23013,39.7753537 102.734923,38.354595 101.744495,37.2376812 C100.754066,36.1207674 99.4551634,35.5623188 97.8477468,35.5623188 C96.2240938,35.5623188 94.9211317,36.1207674 93.9388216,37.2376812 C92.9565115,38.354595 92.4653639,39.7753537 92.4653639,41.5 C92.4653639,43.2246463 92.9565115,44.645405 93.9388216,45.7623188 C94.9211317,46.8792326 96.2240938,47.4376812 97.8477468,47.4376812 Z M129.046084,49.7043478 L126.294006,49.7043478 L117.81858,37.9521739 L117.81858,49.7043478 L114.969083,49.7043478 L114.969083,33.2710145 L117.891644,33.2710145 L126.196587,44.6536232 L126.196587,33.2710145 L129.046084,33.2710145 L129.046084,49.7043478 Z M149.723203,49.7043478 L138.593117,49.7043478 L138.593117,33.2710145 L149.723203,33.2710145 L149.723203,35.8086957 L141.442613,35.8086957 L141.442613,40.0463768 L149.55272,40.0463768 L149.55272,42.584058 L141.442613,42.584058 L141.442613,47.1666667 L149.723203,47.1666667 L149.723203,49.7043478 Z M172.811434,49.7043478 L170.059355,49.7043478 L161.583929,37.9521739 L161.583929,49.7043478 L158.734432,49.7043478 L158.734432,33.2710145 L161.656993,33.2710145 L169.961937,44.6536232 L169.961937,33.2710145 L172.811434,33.2710145 L172.811434,49.7043478 Z M189.080356,49.7043478 L186.230859,49.7043478 L186.230859,35.8086957 L181.311215,35.8086957 L181.311215,33.2710145 L194,33.2710145 L194,35.8086957 L189.080356,35.8086957 L189.080356,49.7043478 Z"></path> <circle cx="222" cy="12" r="12" fill="#FD4343"></circle> <polygon fill="#FFF" points="228.492 11.434 228.492 13.419 223.337 13.419 223.337 18.629 221.296 18.629 221.296 13.419 216.362 13.419 216.362 11.434 221.296 11.434 221.296 6.224 223.337 6.224 223.337 11.434" transform="rotate(45 222.427 12.427)"></polygon> </g> </svg> 