<?xml version="1.0" encoding="UTF-8"?> <svg xmlns="http://www.w3.org/2000/svg" width="234" height="73" viewBox="0 0 234 73"> <g fill="none" fill-rule="evenodd"> <rect width="224" height="65" y="8" fill="#151515" rx="4"></rect> <path fill="#FFF" d="M38.130086,48.7043478 L27,48.7043478 L27,32.2710145 L38.130086,32.2710145 L38.130086,34.8086957 L29.8494969,34.8086957 L29.8494969,39.0463768 L37.9596033,39.0463768 L37.9596033,41.584058 L29.8494969,41.584058 L29.8494969,46.1666667 L38.130086,46.1666667 L38.130086,48.7043478 Z M61.4375091,48.7043478 L58.0278547,48.7043478 L53.4735307,42.273913 L48.9192067,48.7043478 L45.5095523,48.7043478 L51.5738661,40.2782609 L45.8748724,32.2710145 L49.2845268,32.2710145 L53.4735307,38.2826087 L57.63818,32.2710145 L61.072189,32.2710145 L55.3488406,40.2536232 L61.4375091,48.7043478 Z M72.1779204,48.7043478 L69.3284235,48.7043478 L69.3284235,32.2710145 L76.4886977,32.2710145 C78.1285873,32.2710145 79.4193721,32.7637632 80.3610909,33.7492754 C81.3028096,34.7347875 81.773662,35.9584468 81.773662,37.4202899 C81.773662,38.8657077 81.3028096,40.0811545 80.3610909,41.0666667 C79.4193721,42.0521788 78.1285873,42.5449275 76.4886977,42.5449275 L72.1779204,42.5449275 L72.1779204,48.7043478 Z M76.0990229,40.0072464 C76.9108494,40.0072464 77.5724781,39.7690845 78.0839288,39.2927536 C78.5953795,38.8164227 78.8511011,38.1922744 78.8511011,37.4202899 C78.8511011,36.6318801 78.5953795,35.9995193 78.0839288,35.5231884 C77.5724781,35.0468575 76.9108494,34.8086957 76.0990229,34.8086957 L72.1779204,34.8086957 L72.1779204,40.0072464 L76.0990229,40.0072464 Z M97.8477468,49 C95.4285038,49 93.4395586,48.1992834 91.8808517,46.5978261 C90.3221448,44.9963688 89.542803,42.9637804 89.542803,40.5 C89.542803,38.0362196 90.3221448,36.0036312 91.8808517,34.4021739 C93.4395586,32.8007166 95.4285038,32 97.8477468,32 C100.26699,32 102.255935,32.8007166 103.814642,34.4021739 C105.373349,36.0036312 106.152691,38.0362196 106.152691,40.5 C106.152691,42.9637804 105.373349,44.9963688 103.814642,46.5978261 C102.255935,48.1992834 100.26699,49 97.8477468,49 Z M97.8477468,46.4376812 C99.4551634,46.4376812 100.754066,45.8751264 101.744495,44.75 C102.734923,43.6248736 103.23013,42.2082211 103.23013,40.5 C103.23013,38.7753537 102.734923,37.354595 101.744495,36.2376812 C100.754066,35.1207674 99.4551634,34.5623188 97.8477468,34.5623188 C96.2240938,34.5623188 94.9211317,35.1207674 93.9388216,36.2376812 C92.9565115,37.354595 92.4653639,38.7753537 92.4653639,40.5 C92.4653639,42.2246463 92.9565115,43.645405 93.9388216,44.7623188 C94.9211317,45.8792326 96.2240938,46.4376812 97.8477468,46.4376812 Z M129.046084,48.7043478 L126.294006,48.7043478 L117.81858,36.9521739 L117.81858,48.7043478 L114.969083,48.7043478 L114.969083,32.2710145 L117.891644,32.2710145 L126.196587,43.6536232 L126.196587,32.2710145 L129.046084,32.2710145 L129.046084,48.7043478 Z M149.723203,48.7043478 L138.593117,48.7043478 L138.593117,32.2710145 L149.723203,32.2710145 L149.723203,34.8086957 L141.442613,34.8086957 L141.442613,39.0463768 L149.55272,39.0463768 L149.55272,41.584058 L141.442613,41.584058 L141.442613,46.1666667 L149.723203,46.1666667 L149.723203,48.7043478 Z M172.811434,48.7043478 L170.059355,48.7043478 L161.583929,36.9521739 L161.583929,48.7043478 L158.734432,48.7043478 L158.734432,32.2710145 L161.656993,32.2710145 L169.961937,43.6536232 L169.961937,32.2710145 L172.811434,32.2710145 L172.811434,48.7043478 Z M189.080356,48.7043478 L186.230859,48.7043478 L186.230859,34.8086957 L181.311215,34.8086957 L181.311215,32.2710145 L194,32.2710145 L194,34.8086957 L189.080356,34.8086957 L189.080356,48.7043478 Z"></path> <g transform="translate(210)"> <circle cx="12" cy="12" r="12" fill="#3DD654"></circle> <polyline stroke="#FFF" stroke-width="2" points="8 12.051 10.293 15 17 10" transform="rotate(-6 12.5 12.5)"></polyline> </g> </g> </svg> 