<?xml version="1.0" encoding="UTF-8"?> <svg xmlns="http://www.w3.org/2000/svg" width="234" height="72" viewBox="0 0 234 72"> <g fill="none" fill-rule="evenodd"> <rect width="224" height="65" y="7" fill="#EAEAEA" rx="4"></rect> <path fill="#222" d="M38.130086,47.7043478 L27,47.7043478 L27,31.2710145 L38.130086,31.2710145 L38.130086,33.8086957 L29.8494969,33.8086957 L29.8494969,38.0463768 L37.9596033,38.0463768 L37.9596033,40.584058 L29.8494969,40.584058 L29.8494969,45.1666667 L38.130086,45.1666667 L38.130086,47.7043478 Z M61.4375091,47.7043478 L58.0278547,47.7043478 L53.4735307,41.273913 L48.9192067,47.7043478 L45.5095523,47.7043478 L51.5738661,39.2782609 L45.8748724,31.2710145 L49.2845268,31.2710145 L53.4735307,37.2826087 L57.63818,31.2710145 L61.072189,31.2710145 L55.3488406,39.2536232 L61.4375091,47.7043478 Z M72.1779204,47.7043478 L69.3284235,47.7043478 L69.3284235,31.2710145 L76.4886977,31.2710145 C78.1285873,31.2710145 79.4193721,31.7637632 80.3610909,32.7492754 C81.3028096,33.7347875 81.773662,34.9584468 81.773662,36.4202899 C81.773662,37.8657077 81.3028096,39.0811545 80.3610909,40.0666667 C79.4193721,41.0521788 78.1285873,41.5449275 76.4886977,41.5449275 L72.1779204,41.5449275 L72.1779204,47.7043478 Z M76.0990229,39.0072464 C76.9108494,39.0072464 77.5724781,38.7690845 78.0839288,38.2927536 C78.5953795,37.8164227 78.8511011,37.1922744 78.8511011,36.4202899 C78.8511011,35.6318801 78.5953795,34.9995193 78.0839288,34.5231884 C77.5724781,34.0468575 76.9108494,33.8086957 76.0990229,33.8086957 L72.1779204,33.8086957 L72.1779204,39.0072464 L76.0990229,39.0072464 Z M97.8477468,48 C95.4285038,48 93.4395586,47.1992834 91.8808517,45.5978261 C90.3221448,43.9963688 89.542803,41.9637804 89.542803,39.5 C89.542803,37.0362196 90.3221448,35.0036312 91.8808517,33.4021739 C93.4395586,31.8007166 95.4285038,31 97.8477468,31 C100.26699,31 102.255935,31.8007166 103.814642,33.4021739 C105.373349,35.0036312 106.152691,37.0362196 106.152691,39.5 C106.152691,41.9637804 105.373349,43.9963688 103.814642,45.5978261 C102.255935,47.1992834 100.26699,48 97.8477468,48 Z M97.8477468,45.4376812 C99.4551634,45.4376812 100.754066,44.8751264 101.744495,43.75 C102.734923,42.6248736 103.23013,41.2082211 103.23013,39.5 C103.23013,37.7753537 102.734923,36.354595 101.744495,35.2376812 C100.754066,34.1207674 99.4551634,33.5623188 97.8477468,33.5623188 C96.2240938,33.5623188 94.9211317,34.1207674 93.9388216,35.2376812 C92.9565115,36.354595 92.4653639,37.7753537 92.4653639,39.5 C92.4653639,41.2246463 92.9565115,42.645405 93.9388216,43.7623188 C94.9211317,44.8792326 96.2240938,45.4376812 97.8477468,45.4376812 Z M129.046084,47.7043478 L126.294006,47.7043478 L117.81858,35.9521739 L117.81858,47.7043478 L114.969083,47.7043478 L114.969083,31.2710145 L117.891644,31.2710145 L126.196587,42.6536232 L126.196587,31.2710145 L129.046084,31.2710145 L129.046084,47.7043478 Z M149.723203,47.7043478 L138.593117,47.7043478 L138.593117,31.2710145 L149.723203,31.2710145 L149.723203,33.8086957 L141.442613,33.8086957 L141.442613,38.0463768 L149.55272,38.0463768 L149.55272,40.584058 L141.442613,40.584058 L141.442613,45.1666667 L149.723203,45.1666667 L149.723203,47.7043478 Z M172.811434,47.7043478 L170.059355,47.7043478 L161.583929,35.9521739 L161.583929,47.7043478 L158.734432,47.7043478 L158.734432,31.2710145 L161.656993,31.2710145 L169.961937,42.6536232 L169.961937,31.2710145 L172.811434,31.2710145 L172.811434,47.7043478 Z M189.080356,47.7043478 L186.230859,47.7043478 L186.230859,33.8086957 L181.311215,33.8086957 L181.311215,31.2710145 L194,31.2710145 L194,33.8086957 L189.080356,33.8086957 L189.080356,47.7043478 Z"></path> <g transform="translate(210)"> <circle cx="12" cy="12" r="12" fill="#3DD654"></circle> <polyline stroke="#FFF" stroke-width="2" points="8 12.051 10.293 15 17 10" transform="rotate(-6 12.5 12.5)"></polyline> </g> </g> </svg> 