<svg width="70" height="70" viewBox="0 0 70 70" fill="none" xmlns="http://www.w3.org/2000/svg">
<path d="M34.83 2.80264e-06C15.6735 2.80264e-06 0 15.6735 0 34.83V59.2109C0 65.132 4.52792 69.6599 10.449 69.6599H13.932C19.8531 69.6599 24.381 65.132 24.381 59.2109V48.762C24.381 42.8409 19.8531 38.313 13.932 38.313H6.96604V34.83C6.96604 19.5048 19.5048 6.96604 34.83 6.96604C50.1551 6.96604 62.6939 19.5048 62.6939 34.83V38.313H55.7279C49.8069 38.313 45.2789 42.8409 45.2789 48.762V59.2109C45.2789 65.132 49.8069 69.6599 55.7279 69.6599H59.2109C65.132 69.6599 69.6599 65.132 69.6599 59.2109V34.83C69.6599 15.6735 53.9864 2.80264e-06 34.83 2.80264e-06V2.80264e-06ZM13.932 45.2789C16.0218 45.2789 17.415 46.6722 17.415 48.762V59.2109C17.415 61.3007 16.0218 62.694 13.932 62.694H10.449C8.35918 62.694 6.96596 61.3007 6.96596 59.2109V45.2789H13.9319H13.932ZM62.6939 59.2109C62.6939 61.3007 61.3006 62.694 59.2109 62.694H55.7278C53.638 62.694 52.2448 61.3007 52.2448 59.2109V48.762C52.2448 46.6722 53.638 45.2789 55.7278 45.2789H62.6938V59.2109H62.6939Z" fill="#2293D7"/>
</svg>
