<svg width="84" height="74" viewBox="0 0 84 74" fill="none" xmlns="http://www.w3.org/2000/svg">
<path d="M0 24.7473C0 17.9485 2.45203 12.0971 7.35608 7.19301C12.0372 2.51187 17.7215 0.115573 24.4088 0.00411701C31.0962 -0.107339 36.8919 2.06605 41.7959 6.52428C46.7 2.06605 52.4957 -0.107339 59.183 0.00411701C65.8704 0.115573 71.5546 2.51187 76.2358 7.19301C81.1398 12.0971 83.5918 17.9485 83.5918 24.7473C83.5918 31.5461 81.1398 37.3975 76.2358 42.3016C76.0128 42.5245 66.3719 52.054 47.313 70.89C45.8083 72.3946 43.9693 73.147 41.7959 73.147C39.6225 73.147 37.7835 72.3946 36.2789 70.89C36.1674 70.89 26.5265 61.3605 7.35608 42.3016C2.45203 37.3975 0 31.5461 0 24.7473H0ZM5.26629 24.7473C5.26629 30.1529 7.21676 34.7505 11.1177 38.54L40.0405 67.1284C41.2108 68.4101 42.4089 68.4101 43.6349 67.1284L72.4741 38.54C76.3751 34.7505 78.3255 30.1529 78.3255 24.7473C78.3255 19.3417 76.3751 14.7441 72.4741 10.9546C68.7961 7.27661 64.3379 5.38186 59.0994 5.2704C53.861 5.15894 49.2913 6.83078 45.3904 10.2859L41.7959 13.546L38.2015 10.2859C34.3005 6.83078 29.7308 5.15894 24.4924 5.2704C19.254 5.38186 14.7958 7.27661 11.1177 10.9546C7.21676 14.7441 5.26629 19.3417 5.26629 24.7473V24.7473ZM13.0403 24.1622C13.0403 21.0971 14.127 18.4779 16.3004 16.3045C18.4738 14.1311 21.093 13.0444 24.158 13.0444C25.0497 13.0444 25.4955 13.4903 25.4955 14.3819C25.4955 15.2736 25.0497 15.7194 24.158 15.7194C21.8732 15.7194 19.8949 16.5274 18.223 18.1435C16.5512 19.7597 15.7153 21.7659 15.7153 24.1622C15.7153 25.0538 15.2694 25.4996 14.3778 25.4996C13.4861 25.4996 13.0403 25.0538 13.0403 24.1622V24.1622Z" fill="#2293D7"/>
</svg>
