<svg width="72" height="72" viewBox="0 0 72 72" fill="none" xmlns="http://www.w3.org/2000/svg">
<path d="M47.7309 35.8609C47.7309 32.573 46.5885 29.7587 44.3037 27.4181C42.0188 25.0776 39.2046 23.9073 35.8609 23.9073C32.5172 23.9073 29.703 25.0776 27.4181 27.4181C25.1333 29.7587 23.963 32.573 23.9073 35.8609C23.8515 39.1489 25.0218 41.9631 27.4181 44.3037C29.8144 46.6443 32.6287 47.8145 35.8609 47.8145C39.0931 47.8145 41.9074 46.6443 44.3037 44.3037C46.7 41.9631 47.8424 39.1489 47.7309 35.8609ZM54.1675 35.8609C54.1675 40.9321 52.3842 45.2789 48.8176 48.9012C45.251 52.5235 40.9321 54.3068 35.8609 54.2511C30.7897 54.1954 26.4429 52.4121 22.8206 48.9012C19.1983 45.3904 17.415 41.0436 17.4707 35.8609C17.5264 30.6782 19.3097 26.3314 22.8206 22.8206C26.3314 19.3097 30.6782 17.5264 35.8609 17.4707C41.0436 17.415 45.3625 19.1983 48.8176 22.8206C52.2728 26.4429 54.0561 30.7897 54.1675 35.8609V35.8609ZM59.2666 16.7184C59.2666 17.8887 58.8487 18.8918 58.0127 19.7277C57.1768 20.5636 56.1458 20.9816 54.9198 20.9816C53.6938 20.9816 52.6907 20.5636 51.9105 19.7277C51.1303 18.8918 50.7124 17.8887 50.6567 16.7184C50.6009 15.5481 51.0189 14.545 51.9105 13.7091C52.8022 12.8732 53.8053 12.4552 54.9198 12.4552C56.0344 12.4552 57.0654 12.8732 58.0127 13.7091C58.9601 14.545 59.3781 15.5481 59.2666 16.7184ZM35.8609 6.43658C35.638 6.43658 34.4398 6.43658 32.2664 6.43658C30.0931 6.43658 28.4491 6.43658 27.3345 6.43658C26.22 6.43658 24.7153 6.49231 22.8206 6.60376C20.9258 6.71522 19.3376 6.85454 18.0558 7.02172C16.7741 7.18891 15.6595 7.49541 14.7122 7.94124C13.1518 8.55424 11.7864 9.44589 10.6162 10.6162C9.44588 11.7865 8.52637 13.1518 7.85763 14.7122C7.52326 15.6038 7.24463 16.7184 7.02171 18.0558C6.7988 19.3933 6.63162 21.0094 6.52016 22.9042C6.40871 24.7989 6.38084 26.2757 6.43657 27.3345C6.4923 28.3934 6.4923 30.0373 6.43657 32.2665C6.38084 34.4956 6.38084 35.6937 6.43657 35.8609C6.4923 36.0281 6.4923 37.2262 6.43657 39.4554C6.38084 41.6845 6.38084 43.3284 6.43657 44.3873C6.4923 45.4461 6.52016 46.9229 6.52016 48.8176C6.52016 50.7124 6.68735 52.3285 7.02171 53.666C7.35608 55.0034 7.63472 56.118 7.85763 57.0096C8.52637 58.57 9.44588 59.9354 10.6162 61.1056C11.7864 62.2759 13.1518 63.1676 14.7122 63.7806C15.6038 64.1149 16.7184 64.4214 18.0558 64.7001C19.3933 64.9787 20.9816 65.118 22.8206 65.118C24.6596 65.118 26.1642 65.1738 27.3345 65.2852C28.5048 65.3967 30.1488 65.3967 32.2664 65.2852C34.3841 65.1738 35.5823 65.1738 35.8609 65.2852C36.1395 65.3967 37.3098 65.3967 39.3718 65.2852C41.4337 65.1738 43.0777 65.1738 44.3037 65.2852C45.5297 65.3967 47.0343 65.341 48.8176 65.118C50.6009 64.8951 52.217 64.7558 53.666 64.7001C55.1149 64.6444 56.2016 64.3379 56.926 63.7806C58.4864 63.1676 59.8796 62.2759 61.1056 61.1056C62.3316 59.9354 63.2233 58.57 63.7806 57.0096C64.1149 56.118 64.3936 55.0034 64.6165 53.666C64.8394 52.3285 65.0066 50.7124 65.118 48.8176C65.2295 46.9229 65.2574 45.4461 65.2016 44.3873C65.1459 43.3284 65.1459 41.6845 65.2016 39.4554C65.2574 37.2262 65.2574 36.0281 65.2016 35.8609C65.1459 35.6937 65.1459 34.4956 65.2016 32.2665C65.2574 30.0373 65.2574 28.3934 65.2016 27.3345C65.1459 26.2757 65.118 24.7989 65.118 22.9042C65.118 21.0094 64.9509 19.3933 64.6165 18.0558C64.2821 16.7184 64.0035 15.6038 63.7806 14.7122C63.1676 13.1518 62.2759 11.7865 61.1056 10.6162C59.9353 9.44589 58.5421 8.55424 56.926 7.94124C56.0344 7.60687 54.9477 7.30036 53.666 7.02172C52.3842 6.74308 50.7681 6.60376 48.8176 6.60376C46.8672 6.60376 45.3625 6.54804 44.3037 6.43658C43.2448 6.32513 41.6009 6.32513 39.3718 6.43658C37.1426 6.54804 35.9724 6.54804 35.8609 6.43658V6.43658ZM71.6382 35.8609C71.6382 42.9941 71.5546 47.926 71.3874 50.6567C71.1088 57.1211 69.1862 62.1366 65.6196 65.7032C62.053 69.2698 57.0654 71.1924 50.6567 71.471C47.8703 71.6382 42.9383 71.7218 35.8609 71.7218C28.7835 71.7218 23.8515 71.6382 21.0651 71.471C14.6007 71.1367 9.5852 69.214 6.01861 65.7032C2.45203 62.1923 0.529415 57.1768 0.250776 50.6567C0.0835918 47.926 0 42.9941 0 35.8609C0 28.7277 0.0835918 23.7958 0.250776 21.0652C0.529415 14.6007 2.45203 9.58521 6.01861 6.01862C9.5852 2.45204 14.6007 0.529427 21.0651 0.250788C23.7958 0.0836041 28.7277 1.05068e-05 35.8609 1.05068e-05C42.9941 1.05068e-05 47.926 0.0836041 50.6567 0.250788C57.1211 0.585155 62.1087 2.50777 65.6196 6.01862C69.1304 9.52948 71.0531 14.545 71.3874 21.0652C71.5546 23.7958 71.6382 28.7277 71.6382 35.8609V35.8609Z" fill="#848991"/>
</svg>
