<svg width="84" height="84" viewBox="0 0 84 84" fill="none" xmlns="http://www.w3.org/2000/svg">
<path d="M0 78.4091V70.5515C0 69.4369 0.501551 68.3503 1.50465 67.2914L33.186 35.6101C31.9599 32.4336 31.3469 29.2571 31.3469 26.0806C31.3469 18.9475 33.9104 12.8174 39.0374 7.69044C44.1644 2.56348 50.3223 -7.62939e-06 57.5112 -7.62939e-06C64.7001 -7.62939e-06 70.8301 2.56348 75.9014 7.69044C80.9726 12.8174 83.5361 18.9475 83.5918 26.0806C83.6476 33.2138 81.0841 39.3717 75.9014 44.5544C70.7187 49.7371 64.5886 52.3006 57.5112 52.2449C54.3347 52.2449 51.1582 51.6319 47.9817 50.4059L41.7959 56.5081V62.6939C41.7959 64.0871 41.2665 65.3131 40.2077 66.3719C39.1488 67.4307 37.9507 67.9323 36.6132 67.8766H31.3469V73.1428C31.3469 74.536 30.8175 75.7621 29.7587 76.8209C28.6999 77.8797 27.5017 78.4091 26.1642 78.4091H20.062L16.3004 82.0872C15.353 83.0903 14.2663 83.5918 13.0403 83.5918H5.26629C3.81736 83.5918 2.59135 83.0624 1.58824 82.0036C0.585143 80.9448 0.0557279 79.7466 0 78.4091H0ZM5.26629 78.4091H12.5388L16.3004 74.6475C17.3035 73.6444 18.5574 73.1428 20.062 73.1428H26.1642V67.8766C26.1642 66.4834 26.6658 65.2852 27.6689 64.2821C28.672 63.279 29.898 62.7496 31.3469 62.6939H36.6132V56.5081C36.6132 55.0591 37.0869 53.861 38.0343 52.9136L46.895 44.0529C50.2387 46.0034 53.7774 46.9786 57.5112 46.9786C63.2512 46.9786 68.1552 44.9445 72.2233 40.8764C76.2915 36.8083 78.3255 31.8763 78.3255 26.0806C78.3255 20.2849 76.2915 15.3809 72.2233 11.3685C68.1552 7.35607 63.2512 5.32201 57.5112 5.26628C51.7712 5.21055 46.8393 7.24462 42.7154 11.3685C38.5916 15.4923 36.5575 20.3964 36.6132 26.0806C36.6132 29.8144 37.5885 33.3531 39.5389 36.6968L35.7773 40.4584L5.26629 70.8859V78.4091V78.4091ZM52.2449 18.8082C52.2449 18.5852 52.3006 18.3066 52.4121 17.9722C53.6938 14.3499 56.1458 11.8979 59.7682 10.6162C60.6041 10.2818 61.3564 10.3932 62.0251 10.9505C66.149 13.9041 69.6877 17.4428 72.6413 21.5667C72.9757 22.0125 73.1429 22.4862 73.1429 22.9877C73.1429 23.2107 73.0871 23.4893 72.9757 23.8237C71.6939 27.446 69.2419 29.898 65.6196 31.1797C64.7837 31.5141 64.0313 31.4027 63.3626 30.8454C59.2387 27.8918 55.7 24.3531 52.7464 20.2292C52.4121 19.7834 52.2449 19.3097 52.2449 18.8082ZM54.8362 18.8082C57.6784 22.7091 60.9942 26.0249 64.7837 28.7556C67.6258 27.7525 69.5484 25.8299 70.5515 22.9877C67.8208 19.1982 64.505 15.8824 60.6041 13.0403C57.762 14.0434 55.8393 15.966 54.8362 18.8082V18.8082Z" fill="white"/>
</svg>
