<svg width="58" height="84" viewBox="0 0 58 84" fill="none" xmlns="http://www.w3.org/2000/svg">
<path d="M0.00269651 28.7565C0.00269651 20.7874 2.81696 14.0164 8.44547 8.44364C14.074 2.87085 20.8449 0.0565916 28.7583 0.000863679C36.6716 -0.0548642 43.4426 2.75939 49.0711 8.44364C54.6996 14.1279 57.5139 20.8988 57.5139 28.7565C57.5139 31.7658 56.678 35.1373 55.0061 38.8711C53.3343 42.6048 51.3559 46.5058 49.0711 50.5739C46.7863 54.6421 45.2259 57.8743 44.39 60.2706C43.554 62.444 42.6903 65.0632 41.7986 68.1282C40.907 71.1932 40.2382 73.4781 39.7924 74.9827C39.3466 76.4874 38.5943 77.9642 37.5354 79.4131C36.4766 80.862 35.3063 81.9487 34.0246 82.6732C32.7428 83.3977 30.9874 83.7042 28.7583 83.5927C26.5292 83.4812 24.7459 83.1747 23.4084 82.6732C22.0709 82.1716 20.9285 81.0849 19.9811 79.4131C19.0338 77.7413 18.3093 76.2645 17.8078 74.9827C17.3062 73.701 16.6096 71.4162 15.718 68.1282C14.8263 64.8403 13.9347 62.2211 13.043 60.2706C12.3186 57.8743 10.786 54.6142 8.44547 50.4903C6.1049 46.3665 4.0987 42.4934 2.42686 38.8711C0.755023 35.2488 -0.0530314 31.8772 0.00269651 28.7565V28.7565ZM5.26898 28.7565C5.26898 32.323 7.55383 38.2581 12.1235 46.5615C14.1854 50.1281 15.6344 52.8866 16.4703 54.8371H40.9627C41.8543 52.8866 43.3311 50.1281 45.3931 46.5615C49.9627 38.1466 52.2476 32.2116 52.2476 28.7565C52.2476 22.2363 49.9627 16.6914 45.3931 12.1217C40.8234 7.55199 35.2785 5.26715 28.7583 5.26715C22.2381 5.26715 16.6932 7.55199 12.1235 12.1217C7.55383 16.6914 5.26898 22.2363 5.26898 28.7565V28.7565ZM13.043 28.7565C13.043 24.4097 14.5755 20.7038 17.6406 17.6387C20.7056 14.5737 24.4115 13.0412 28.7583 13.0412C29.5942 13.0412 30.0122 13.487 30.0122 14.3787C30.0122 15.2703 29.5942 15.7161 28.7583 15.7161C25.136 15.7161 22.0431 16.97 19.4796 19.4778C16.9161 21.9855 15.6622 25.0784 15.718 28.7565C15.718 29.5924 15.2721 30.0103 14.3805 30.0103C13.4888 30.0103 13.043 29.5924 13.043 28.7565V28.7565ZM18.6437 60.1034C19.2567 61.9424 19.7861 63.6143 20.2319 65.1189L38.037 62.8619C38.1484 62.1932 38.4271 61.2737 38.8729 60.1034H18.6437V60.1034ZM21.0678 67.6267C21.6251 69.5771 22.1267 71.249 22.5725 72.6422L35.4456 71.0539C35.78 70.1623 36.1144 69.1034 36.4487 67.8774C36.5602 67.5988 36.6716 67.1808 36.7831 66.6236C36.8946 66.0663 36.9781 65.7319 37.0339 65.6205L21.0678 67.6267ZM23.492 75.0663C24.1607 76.5153 24.8573 77.4348 25.5818 77.8249C26.3063 78.215 27.3651 78.41 28.7583 78.41C30.3744 78.41 31.5725 78.1314 32.3527 77.5741C33.1329 77.0168 33.8853 75.7629 34.6097 73.8125L23.492 75.0663Z" fill="#2293D7"/>
</svg>
