<svg width="72" height="69" viewBox="0 0 72 69" fill="none" xmlns="http://www.w3.org/2000/svg">
<path d="M16.3004 22.2354V68.4617H0.91951V22.2354H16.3004ZM17.3035 7.94118C17.3035 10.226 16.4955 12.1208 14.8793 13.6254C13.2632 15.1301 11.1734 15.8824 8.60996 15.8824H8.52637C5.96288 15.8824 3.90095 15.1301 2.34057 13.6254C0.780191 12.1208 0 10.226 0 7.94118C0 5.65633 0.808054 3.76159 2.42416 2.25694C4.04027 0.752284 6.13007 -4.34394e-05 8.69355 -4.34394e-05C11.257 -4.34394e-05 13.319 0.752284 14.8793 2.25694C16.4397 3.76159 17.2478 5.65633 17.3035 7.94118V7.94118ZM71.6382 41.9631V68.4617H56.3409V43.7185C56.3409 40.4305 55.7 37.8671 54.4183 36.028C53.1365 34.189 51.1582 33.2695 48.4833 33.2695C46.5328 33.2695 44.9167 33.7989 43.6349 34.8578C42.3532 35.9166 41.3501 37.2541 40.6256 38.8702C40.2913 39.8175 40.1241 41.0714 40.1241 42.6318V68.4617H24.7432C24.7989 56.0344 24.8268 45.9755 24.8268 38.285C24.8268 30.5946 24.8268 25.997 24.8268 24.4924L24.7432 22.2354H40.1241V28.9227H40.0405C40.6535 27.9196 41.2944 27.0558 41.9631 26.3314C42.6318 25.6069 43.4956 24.7989 44.5544 23.9072C45.6133 23.0156 46.9786 22.3468 48.6504 21.901C50.3223 21.4552 52.1056 21.2044 54.0003 21.1487C59.2945 21.1487 63.5577 22.9041 66.7899 26.415C70.0221 29.9258 71.6382 35.1085 71.6382 41.9631V41.9631Z" fill="#848991"/>
</svg>
