<svg width="72" height="69" viewBox="0 0 72 69" fill="none" xmlns="http://www.w3.org/2000/svg">
<path d="M16.3004 22.2354V68.4617H0.91951V22.2354H16.3004ZM17.3035 7.94124C17.3035 10.2261 16.4955 12.1208 14.8793 13.6255C13.2632 15.1301 11.1734 15.8825 8.60996 15.8825H8.52637C5.96288 15.8825 3.90095 15.1301 2.34057 13.6255C0.780191 12.1208 0 10.2261 0 7.94124C0 5.6564 0.808054 3.76165 2.42416 2.257C4.04027 0.752345 6.13007 1.75957e-05 8.69355 1.75957e-05C11.257 1.75957e-05 13.319 0.752345 14.8793 2.257C16.4397 3.76165 17.2478 5.6564 17.3035 7.94124V7.94124ZM71.6382 41.9631V68.4617H56.3409V43.7185C56.3409 40.4306 55.7 37.8671 54.4183 36.0281C53.1365 34.1891 51.1582 33.2696 48.4833 33.2696C46.5328 33.2696 44.9167 33.799 43.6349 34.8578C42.3532 35.9166 41.3501 37.2541 40.6256 38.8702C40.2913 39.8176 40.1241 41.0715 40.1241 42.6319V68.4617H24.7432C24.7989 56.0344 24.8268 45.9755 24.8268 38.2851C24.8268 30.5946 24.8268 25.9971 24.8268 24.4924L24.7432 22.2354H40.1241V28.9228H40.0405C40.6535 27.9197 41.2944 27.0559 41.9631 26.3314C42.6318 25.607 43.4956 24.7989 44.5544 23.9073C45.6133 23.0156 46.9786 22.3469 48.6504 21.9011C50.3223 21.4553 52.1056 21.2045 54.0003 21.1488C59.2945 21.1488 63.5577 22.9042 66.7899 26.415C70.0221 29.9259 71.6382 35.1086 71.6382 41.9631V41.9631Z" fill="#2293D7"/>
</svg>
