<svg width="80" height="84" viewBox="0 0 80 84" fill="none" xmlns="http://www.w3.org/2000/svg">
<path d="M78.7095 75.6589L72.996 58.5142H66.7266L70.2082 75.2326H8.91037L12.392 58.5142H6.12261L0.404898 75.6589C-1.04539 80.0224 1.52506 83.5918 6.12261 83.5918H72.9961C77.5936 83.5918 80.1641 80.0224 78.7096 75.6589H78.7095ZM60.4572 20.8979C60.4572 9.35808 51.1033 -3.8147e-05 39.5593 -3.8147e-05C28.0153 -3.8147e-05 18.6613 9.35808 18.6613 20.8979C18.6613 40.8555 39.5593 62.6938 39.5593 62.6938C39.5593 62.6938 60.4572 40.8555 60.4572 20.8979ZM28.2744 21.1487C28.2744 14.9169 33.3233 9.86796 39.5593 9.86796C45.7952 9.86796 50.8442 14.9169 50.8442 21.1487C50.8442 27.3846 45.791 32.4336 39.5593 32.4336C33.3275 32.4336 28.2744 27.3805 28.2744 21.1487Z" fill="#2293D7"/>
</svg>
