<svg width="70" height="84" viewBox="0 0 70 84" fill="none" xmlns="http://www.w3.org/2000/svg">
<path d="M34.83 -3.8147e-05C15.6735 -3.8147e-05 0 15.6734 0 34.8299C0 60.604 31.6953 82.1987 32.7402 82.8952C33.4367 83.2436 34.1334 83.5918 34.83 83.5918C35.5265 83.5918 36.2232 83.2435 36.9197 82.8952C37.9646 82.1987 69.6599 60.604 69.6599 34.8299C69.6599 15.6734 53.9864 -3.8147e-05 34.83 -3.8147e-05ZM34.83 75.9292C28.2122 71.053 6.96604 53.638 6.96604 34.8298C6.96604 19.5047 19.5048 6.96592 34.83 6.96592C50.1551 6.96592 62.6939 19.5047 62.6939 34.8298C62.6939 53.638 41.4476 71.0529 34.83 75.9292V75.9292ZM34.83 20.8979C27.1673 20.8979 20.898 27.1673 20.898 34.8299C20.898 42.4925 27.1673 48.7619 34.83 48.7619C42.4926 48.7619 48.762 42.4925 48.762 34.8299C48.762 27.1673 42.4926 20.8979 34.83 20.8979ZM34.83 41.7959C30.9987 41.7959 27.864 38.6612 27.864 34.8299C27.864 30.9987 30.9987 27.864 34.83 27.864C38.6612 27.864 41.7959 30.9987 41.7959 34.8299C41.7959 38.6612 38.6612 41.7959 34.83 41.7959V41.7959Z" fill="white"/>
</svg>
