<svg width="56" height="84" viewBox="0 0 56 84" fill="none" xmlns="http://www.w3.org/2000/svg">
<path d="M27.864 55.7279C35.5266 55.7279 41.796 49.4585 41.796 41.7959V13.932C41.796 6.26939 35.5266 4.20395e-06 27.864 4.20395e-06C20.2014 4.20395e-06 13.932 6.26939 13.932 13.932V41.7959C13.932 49.4585 20.2014 55.7279 27.864 55.7279V55.7279ZM20.898 13.932C20.898 10.1007 24.0327 6.96604 27.864 6.96604C31.6953 6.96604 34.83 10.1007 34.83 13.932V41.7959C34.83 45.6272 31.6953 48.7619 27.864 48.7619C24.0327 48.7619 20.898 45.6272 20.898 41.7959V13.932V13.932ZM52.245 31.3469C50.1552 31.3469 48.762 32.7402 48.762 34.83V41.7959C48.762 53.2898 39.3579 62.6939 27.864 62.6939C16.3701 62.6939 6.96604 53.2898 6.96604 41.7959V34.83C6.96604 32.7402 5.57282 31.3469 3.48302 31.3469C1.39322 31.3469 0 32.7402 0 34.83V41.7959C0 56.0762 10.7973 67.57 24.381 69.3116V76.6259H13.932C11.8422 76.6259 10.449 78.0191 10.449 80.1089C10.449 82.1987 11.8422 83.5919 13.932 83.5919H41.7959C43.8857 83.5919 45.2789 82.1987 45.2789 80.1089C45.2789 78.0191 43.8857 76.6259 41.7959 76.6259H31.3469V69.3116C44.9306 67.5701 55.7279 55.7279 55.7279 41.7959V34.83C55.7279 32.7402 54.3347 31.3469 52.2449 31.3469H52.245Z" fill="#2293D7"/>
</svg>
