<svg width="84" height="84" viewBox="0 0 84 84" fill="none" xmlns="http://www.w3.org/2000/svg">
<path d="M0.238834 50.7402C1.9664 45.3346 4.94784 40.5141 9.18316 36.2788C12.4711 32.8794 18.1275 28.8391 26.1523 24.158C33.3412 20.0341 38.301 16.6069 41.0317 13.8762C44.0967 10.8112 46.1586 7.43964 47.2174 3.7616C47.5518 2.86995 47.9976 2.11762 48.5549 1.50462C49.3351 0.835881 50.1432 0.390055 50.9791 0.167143C52.9296 -0.27868 54.6293 0.167146 56.0782 1.50462L82.1588 27.5853C83.6078 29.0899 84.0536 30.8453 83.4963 32.8516C81.7687 38.3686 78.7594 43.1891 74.4684 47.3129C71.2362 50.7123 65.5798 54.7526 57.4992 59.4338C50.3103 63.5576 45.3784 66.9849 42.7035 69.7156C39.6384 72.6691 37.5487 76.0407 36.4341 79.8302C36.0997 80.7218 35.6818 81.4741 35.1802 82.0871C34.4 82.7559 33.5641 83.2017 32.6725 83.4246C30.722 83.8704 29.0502 83.4246 27.657 82.0871L1.49271 56.0065C0.0995139 54.5018 -0.318445 52.7464 0.238834 50.7402V50.7402ZM5.25434 52.2449L31.4186 78.4091C32.8118 74.0066 35.1524 70.1056 38.4403 66.7062C41.7282 63.3068 45.2948 60.4647 49.1401 58.1799L60.6757 51.4925C60.6757 51.4925 64.2702 48.6783 71.4591 43.0498C78.648 37.4212 80.9607 33.5203 78.3972 31.3469L52.3165 5.26625C50.9791 9.61302 48.6664 13.4861 45.3784 16.8855C42.0905 20.2849 38.496 23.127 34.5951 25.4119L22.9758 32.0992C22.9758 32.0992 19.4092 34.9135 12.2761 40.542C5.14289 46.1705 2.80232 50.0715 5.25434 52.2449V52.2449ZM28.1585 68.8796L29.9139 66.4555C31.14 64.9508 32.4496 63.474 33.8428 62.0251C35.0688 60.7434 36.6013 59.378 38.4403 57.9291C39.0533 57.4276 39.6385 57.4276 40.1957 57.9291C40.8645 58.5978 40.8645 59.2666 40.1957 59.9353H40.0285C38.301 61.3285 36.8521 62.6381 35.6818 63.8641C34.3443 65.1459 33.1462 66.4833 32.0873 67.8765L30.4155 70.2171C30.304 70.3286 30.2483 70.44 30.2483 70.5515C29.5796 71.2202 28.9387 71.2202 28.3257 70.5515C27.8799 69.9942 27.8241 69.4369 28.1585 68.8796ZM30.4155 38.8702C30.5269 37.8671 30.8056 36.9476 31.2514 36.1116C31.6972 35.1085 32.2266 34.2169 32.8397 33.4367C32.8397 33.3252 32.7003 33.1859 32.4217 33.0187C32.1988 32.9073 32.0873 32.7122 32.0873 32.4336C32.0873 32.155 32.1988 31.8763 32.4217 31.5977C32.6446 31.319 32.8675 31.1797 33.0904 31.1797C33.3133 31.1797 33.5084 31.2912 33.6756 31.5141C33.8985 31.737 34.1214 31.9042 34.3443 32.0156C34.7901 31.5698 35.3474 31.124 36.0161 30.6782C36.6849 30.2323 37.4651 29.898 38.3567 29.6751C39.2484 29.4522 40.0564 29.4243 40.7809 29.5915C41.5053 29.7587 42.1741 30.1766 42.7871 30.8454C43.2329 31.2912 43.4558 31.7927 43.4558 32.35C43.4558 32.9073 43.2329 33.3252 42.7871 33.6039C42.5084 33.9382 42.0905 34.0497 41.5332 33.9382C41.1988 33.8268 40.6973 33.7153 40.0285 33.6039C39.527 33.381 38.9697 33.2974 38.3567 33.3531C37.7437 33.4088 37.1028 33.7153 36.4341 34.2726C37.5487 35.3872 38.9697 36.9754 40.6973 39.0373C41.4775 38.5915 42.3413 38.2014 43.2886 37.8671C44.1803 37.5327 45.0719 37.3098 45.9636 37.1983C46.8552 37.0869 47.719 37.1705 48.5549 37.4491C49.3908 37.7277 50.2546 38.2014 51.1463 38.8702C51.9264 39.5389 52.4837 40.2355 52.8181 40.96C53.041 41.7402 53.0967 42.5761 52.9853 43.4677C52.9853 44.3036 52.7066 45.2231 52.1494 46.2262C51.7035 47.2851 51.0905 48.316 50.3103 49.3191C50.7562 49.6535 51.202 50.0157 51.6478 50.4058C51.8707 50.5173 52.01 50.7123 52.0658 50.991C52.1215 51.2696 52.0379 51.5204 51.815 51.7433C51.5921 51.9662 51.3413 52.1055 51.0627 52.1613C50.784 52.217 50.5333 52.1334 50.3103 51.9105C49.8088 51.4647 49.3908 51.0188 49.0565 50.573C48.0534 51.5761 47.0781 52.2449 46.1307 52.5792C45.2391 52.9136 44.2917 53.0808 43.2886 53.0808C42.4527 52.9693 41.6725 52.7464 40.9481 52.412C40.2236 52.0777 39.6663 51.6597 39.2762 51.1582C38.8861 50.6566 38.6632 50.1829 38.6075 49.7371C38.5518 49.2913 38.7747 48.8455 39.2762 48.3996C39.7778 47.9538 40.14 47.7588 40.3629 47.8145C40.5858 47.8702 40.9481 47.9538 41.4496 48.0653C41.9512 48.1767 42.3134 48.3996 42.5363 48.734C42.7592 49.0684 43.1214 49.2634 43.623 49.3191C44.1245 49.3749 44.5982 49.3749 45.0441 49.3191C45.4899 49.2634 46.0472 48.9291 46.7159 48.316C45.5456 47.1458 43.9852 45.4182 42.0348 43.1333C40.2515 44.0807 38.4403 44.6101 36.6013 44.7216C34.9852 44.833 33.592 44.4151 32.4217 43.4677C31.6415 42.799 31.0842 42.0745 30.7499 41.2943C30.4155 40.5141 30.304 39.7061 30.4155 38.8702V38.8702ZM33.9263 37.9507C33.8706 38.3407 33.8985 38.7308 34.0099 39.1209C34.1214 39.511 34.3443 39.7897 34.6787 39.9569C35.2359 40.5141 35.849 40.7649 36.5177 40.7092C37.1864 40.6535 38.1059 40.3748 39.2762 39.8733C37.6044 38.09 36.2391 36.6689 35.1802 35.6101C34.8459 36.0559 34.5672 36.446 34.3443 36.7804C34.1214 37.1147 33.9821 37.5048 33.9263 37.9507V37.9507ZM43.2886 25.997C42.7871 25.4397 42.7871 24.8267 43.2886 24.158C43.4001 24.0465 43.5115 23.9908 43.623 23.9908C45.4063 22.5976 46.8831 21.288 48.0534 20.062C49.3351 18.7803 50.5333 17.4149 51.6478 15.966L53.2361 13.709C53.3475 13.4861 53.459 13.3747 53.5704 13.3747C54.2392 12.7059 54.8522 12.7059 55.4094 13.3747C55.9667 13.9319 56.0225 14.5449 55.5766 15.2137L53.7376 17.6378C52.5673 19.1425 51.2577 20.6193 49.8088 22.0682C48.6385 23.3499 47.1339 24.6874 45.2948 26.0806C44.6261 26.6379 43.9574 26.61 43.2886 25.997ZM43.623 42.2974C45.4063 44.2479 46.8831 45.8083 48.0534 46.9786C48.3877 46.6999 48.6664 46.3377 48.8893 45.8919C49.1122 45.4461 49.2794 45.0002 49.3908 44.5544C49.5023 44.1086 49.5023 43.7185 49.3908 43.3841C49.2794 43.0498 49.0286 42.6597 48.6385 42.2138C48.2484 41.768 47.8304 41.5172 47.3846 41.4615C46.9388 41.4058 46.5208 41.3779 46.1307 41.3779C45.7407 41.3779 45.2948 41.5172 44.7933 41.7959C44.5704 41.9073 44.1803 42.0745 43.623 42.2974V42.2974Z" fill="#2293D7"/>
</svg>
