<svg width="77" height="77" viewBox="0 0 77 77" fill="none" xmlns="http://www.w3.org/2000/svg">
<path d="M20.9314 4.27581C8.02065 10.913 0 24.0076 0 38.5401C0 41.1858 0.334368 43.8691 0.923674 46.5566L34.1473 16.3005C30.6029 13.0781 21.2909 4.60185 20.9314 4.27589V4.27581ZM54.3055 3.45238C49.29 1.1745 43.9568 5.63828e-05 38.4481 5.63828e-05C34.5443 5.63828e-05 30.6949 0.652055 26.9584 1.84324L54.3055 26.716V3.45238V3.45238ZM60.1527 6.84626V51.2209H74.7185C76.1522 47.1166 76.9002 42.845 76.9002 38.5359C76.9044 25.8592 70.5389 13.9934 60.1527 6.84626V6.84626ZM2.7711 52.7841C5.58816 59.8602 10.5326 65.9498 16.848 70.2716V39.9695L8.30073 47.7477C5.38335 50.3976 2.95086 52.6211 2.7711 52.7841ZM22.6952 73.6654C26.6031 75.4291 30.6908 76.5158 34.8996 76.9045H41.9589C54.5771 75.7301 65.8954 68.2611 72.0478 57.0765H22.6952V73.6654V73.6654Z" fill="#2293D7"/>
</svg>
