<svg width="60" height="78" viewBox="0 0 60 78" fill="none" xmlns="http://www.w3.org/2000/svg">
<path d="M0 27.8413C0 24.4976 0.585143 21.349 1.75543 18.3954C2.92571 15.4419 4.54182 12.8505 6.60376 10.6214C8.66569 8.39228 11.0341 6.46967 13.7091 4.85356C16.384 3.23745 19.254 2.01144 22.319 1.17552C25.3841 0.339599 28.5327 -0.050496 31.7649 0.00523193C36.669 0.00523193 41.2386 1.0362 45.474 3.09813C49.7093 5.16006 53.1365 8.16937 55.7558 12.126C58.375 16.0827 59.6846 20.541 59.6846 25.5007C59.6846 28.51 59.4059 31.4358 58.8487 34.2779C58.2914 37.12 57.344 39.8785 56.0065 42.5535C54.6691 45.2284 53.1087 47.5411 51.3254 49.4916C49.5421 51.4421 47.313 53.0582 44.638 54.3399C41.9631 55.6217 39.0095 56.2068 35.7773 56.0954C33.6596 56.0954 31.5698 55.5938 29.5079 54.5907C27.446 53.5876 25.9413 52.2223 24.994 50.4947C24.7153 51.7207 24.2974 53.4761 23.7401 55.761C23.1828 58.0458 22.7927 59.5226 22.5698 60.1914C22.3469 60.8601 22.0404 61.9746 21.6503 63.535C21.2602 65.0954 20.8422 66.1821 20.3964 66.7951C19.9506 67.4081 19.4769 68.3834 18.9753 69.7208C18.4738 71.0583 17.7493 72.2843 16.802 73.3989C15.8546 74.5134 14.8793 75.8509 13.8762 77.4113L13.2911 77.662L12.8731 77.1605C12.3716 72.2564 12.1208 69.3307 12.1208 68.3834C12.1208 65.5412 12.4552 62.3369 13.1239 58.7703C13.7927 55.2037 14.8236 50.7176 16.2168 45.312C17.61 39.9064 18.4181 36.7578 18.641 35.8661C17.6379 33.8599 17.1363 31.2407 17.1363 28.0085C17.1363 25.3893 17.9444 22.9651 19.5605 20.736C21.1766 18.5069 23.2385 17.3645 25.7463 17.3087C27.641 17.3087 29.1178 17.9496 30.1767 19.2314C31.2355 20.5131 31.7649 22.1013 31.7649 23.9961C31.7649 26.058 31.0962 29.0116 29.7587 32.8568C28.4212 36.702 27.7246 39.6278 27.6689 41.634C27.6689 43.5844 28.3655 45.2006 29.7587 46.4823C31.1519 47.764 32.8516 48.4049 34.8578 48.4049C36.5854 48.4049 38.1736 48.0148 39.6225 47.2346C41.0715 46.4544 42.2975 45.3956 43.3006 44.0581C44.3037 42.7207 45.1675 41.2439 45.8919 39.6278C46.6164 38.0117 47.2015 36.312 47.6473 34.5287C48.0932 32.7454 48.3997 31.0178 48.5669 29.346C48.734 27.6741 48.8455 26.1137 48.9012 24.6648C48.9012 19.3149 47.2015 15.1354 43.8021 12.126C40.4027 9.11674 35.9445 7.61209 30.4274 7.61209C24.2416 7.61209 19.0589 9.61829 14.8793 13.6307C10.6998 17.6431 8.60996 22.7422 8.60996 28.928C8.60996 30.3212 8.80501 31.6587 9.1951 32.9404C9.5852 34.2222 10.0032 35.2253 10.449 35.9497C10.8948 36.6742 11.3128 37.3986 11.7029 38.1231C12.093 38.8476 12.288 39.3213 12.288 39.5442C12.288 40.3801 12.0651 41.4946 11.6193 42.8878C11.1734 44.281 10.5883 44.9776 9.86384 44.9776C9.80811 44.9776 9.55733 44.9498 9.11151 44.894C7.4954 44.3925 6.07434 43.5287 4.84833 42.3027C3.62231 41.0767 2.67494 39.5999 2.0062 37.8723C1.33747 36.1448 0.835918 34.4729 0.501551 32.8568C0.167184 31.2407 0 29.5689 0 27.8413H0Z" fill="white"/>
</svg>
