<svg width="64" height="56" viewBox="0 0 64 56" fill="none" xmlns="http://www.w3.org/2000/svg">
<path d="M12.1877 -5.09777e-06C5.45853 -5.09777e-06 0 5.61322 0 12.5388C0 19.4602 5.45853 25.0775 12.1877 25.0775C24.3712 25.0775 16.2502 49.315 0 49.315V55.1664C29.0022 55.1706 40.3665 -5.09777e-06 12.1877 -5.09777e-06V-5.09777e-06ZM47.2962 -5.09777e-06C40.5713 -5.09777e-06 35.1127 5.61322 35.1127 12.5388C35.1127 19.4602 40.5713 25.0775 47.2962 25.0775C59.4839 25.0775 51.363 49.315 35.1127 49.315V55.1664C64.1108 55.1706 75.475 -5.09777e-06 47.2962 -5.09777e-06V-5.09777e-06Z" fill="#2293D7"/>
</svg>
