<?xml version="1.0" encoding="UTF-8"?> <svg xmlns="http://www.w3.org/2000/svg" xmlns:xlink="http://www.w3.org/1999/xlink" width="77" height="98" viewBox="0 0 77 98"> <defs> <path id="resource-icon-1-a" d="M58.2916394,-6.61415367e-14 C58.2417967,0.534843665 58.4248057,1.08678827 58.838816,1.49157481 L69.5759332,11.9894783 C69.9206752,12.3265398 70.3836599,12.5152663 70.8657983,12.5152663 C70.910929,12.5152663 70.9556812,12.513646 71,12.5104603 L71,90.154955 C71,91.1739452 70.1739452,92 69.154955,92 L1.84504505,92 C0.826054804,92 3.37678192e-15,91.1739452 -4.4408921e-15,90.154955 L0,1.84504505 C-1.24790314e-16,0.826054804 0.826054804,-4.47575123e-15 1.84504505,-4.6629367e-15 L58.2916394,-1.86208268e-16 Z"></path> <path id="resource-icon-1-b" d="M68.9477705,12 L60.8787529,12 C59.8597627,12 59.0337079,11.1739452 59.0337079,10.154955 L59.0337079,2.06320772 C59.0337079,1.04421748 59.8597627,0.218162673 60.8787529,0.218162673 C61.3689886,0.218162673 61.8390694,0.413263921 62.1852304,0.760400086 L70.254248,8.85214732 C70.9737688,9.57369493 70.9721258,10.7419117 70.2505782,11.4614325 C69.9047155,11.8063236 69.4362077,12 68.9477705,12 Z"></path> </defs> <g fill="none" fill-rule="evenodd" transform="translate(3 3)"> <use fill="#FFF" xlink:href="#resource-icon-1-a"></use> <path stroke="#42A7F7" stroke-width="2.768" d="M59.6694533,0.128400117 C59.6564531,0.267899887 59.7046746,0.402853954 59.8062149,0.502132032 L70.543332,11.0000356 C70.6295175,11.0843009 70.7452637,11.1314826 70.8657983,11.1314826 C70.8776338,11.1314826 70.889294,11.1310638 70.9007868,11.1302377 L72.3837838,11.0236368 L72.3837838,90.154955 C72.3837838,91.9381879 70.9381879,93.3837838 69.154955,93.3837838 L1.84504505,93.3837838 C0.0618121231,93.3837838 -1.38378378,91.9381879 -1.38378378,90.154955 L-1.38378378,1.84504505 C-1.38378378,0.0618121231 0.0618121231,-1.38378378 1.84504505,-1.38378378 L58.2916394,-1.38378378 L59.8103755,-1.38378378 L59.6694533,0.128400117 Z"></path> <path stroke="#DCEFFE" stroke-width="1.845" d="M57.4643125,0.922522523 L1.84504505,0.922522523 C1.33554992,0.922522523 0.922522523,1.33554992 0.922522523,1.84504505 L0.922522523,90.154955 C0.922522523,90.6644501 1.33554992,91.0774775 1.84504505,91.0774775 L69.154955,91.0774775 C69.6644501,91.0774775 70.0774775,90.6644501 70.0774775,90.154955 L70.0774775,13.3231449 C69.649952,13.1960927 69.2555451,12.9664208 68.9310006,12.6491069 L58.1938835,2.15120333 C57.8402966,1.80549409 57.5931119,1.38072674 57.4643125,0.922522523 Z"></path> <use fill="#FFF" xlink:href="#resource-icon-1-b"></use> <path stroke="#42A7F7" stroke-width="2.768" d="M68.9477705,13.3837838 L60.8787529,13.3837838 C59.09552,13.3837838 57.6499241,11.9381879 57.6499241,10.154955 L57.6499241,2.06320772 C57.6499241,0.279974797 59.09552,-1.16562111 60.8787529,-1.16562111 C61.7366653,-1.16562111 62.5593067,-0.824193928 63.1650886,-0.216705638 L71.2341062,7.8750416 C72.4932675,9.13774991 72.4903922,11.1821292 71.2276839,12.4412906 C70.6224242,13.0448501 69.8025356,13.3837838 68.9477705,13.3837838 Z"></path> <path stroke="#DCEFFE" stroke-width="1.845" d="M68.9477705,11.0774775 C69.1919891,11.0774775 69.426243,10.9806393 69.5991743,10.8081937 C69.9599481,10.4484333 69.9607697,9.86432494 69.6010093,9.50355114 L61.5319917,1.4118039 C61.3589111,1.23823582 61.1238707,1.1406852 60.8787529,1.1406852 C60.3692578,1.1406852 59.9562304,1.5537126 59.9562304,2.06320772 L59.9562304,10.154955 C59.9562304,10.6644501 60.3692578,11.0774775 60.8787529,11.0774775 L68.9477705,11.0774775 Z"></path> <path stroke="#BCDDF6" stroke-linecap="round" stroke-width="2.56" d="M16.3793928 42.8L55.41836 42.8M14.7833567 53.2L27.4975421 53.2"></path> <path stroke="#42A7F7" stroke-linecap="round" stroke-width="2.56" d="M32.3339185,53.2 L45.0481039,53.2"></path> <path stroke="#BCDDF6" stroke-linecap="round" stroke-width="2.56" d="M48.3083645 53.2L55.3995006 53.2M25.1513733 34L54.6239076 34"></path> <path stroke="#42A7F7" stroke-linecap="round" stroke-width="2.56" d="M16.3539326 34L21.1404494 34M25.1513733 63.6L54.6239076 63.6"></path> <path stroke="#BCDDF6" stroke-linecap="round" stroke-width="2.56" d="M16.3539326 63.6L21.1404494 63.6M16.3760924 26L45.8486267 26"></path> <path stroke="#42A7F7" stroke-linecap="round" stroke-width="2.56" d="M49.8595506,26 L54.6460674,26"></path> </g> </svg> 