<?xml version="1.0" encoding="UTF-8"?> <svg xmlns="http://www.w3.org/2000/svg" xmlns:xlink="http://www.w3.org/1999/xlink" width="77" height="98" viewBox="0 0 77 98"> <defs> <path id="resource-icon-2-a" d="M58.2916394,-6.61415367e-14 C58.2417967,0.534843665 58.4248057,1.08678827 58.838816,1.49157481 L69.5759332,11.9894783 C69.9206752,12.3265398 70.3836599,12.5152663 70.8657983,12.5152663 C70.910929,12.5152663 70.9556812,12.513646 71,12.5104603 L71,90.154955 C71,91.1739452 70.1739452,92 69.154955,92 L1.84504505,92 C0.826054804,92 3.37678192e-15,91.1739452 -4.4408921e-15,90.154955 L0,1.84504505 C-1.24790314e-16,0.826054804 0.826054804,-4.47575123e-15 1.84504505,-4.6629367e-15 L58.2916394,-1.86208268e-16 Z"></path> <path id="resource-icon-2-b" d="M68.9140627,11.7907123 L60.845045,11.7907123 C59.8260548,11.7907123 59,10.9646575 59,9.94566723 L59,1.85391999 C59,0.834929751 59.8260548,0.00887494755 60.845045,0.00887494755 C61.3352807,0.00887494755 61.8053615,0.203976195 62.1515226,0.55111236 L70.2205402,8.6428596 C70.940061,9.3644072 70.9384179,10.532624 70.2168703,11.2521447 C69.8710076,11.5970359 69.4024999,11.7907123 68.9140627,11.7907123 Z"></path> <circle id="resource-icon-2-d" cx="36.5" cy="39.5" r="17.5"></circle> <filter id="resource-icon-2-c" width="114.3%" height="114.3%" x="-7.1%" y="-7.1%" filterUnits="objectBoundingBox"> <feMorphology in="SourceAlpha" radius="3" result="shadowSpreadInner1"></feMorphology> <feOffset in="shadowSpreadInner1" result="shadowOffsetInner1"></feOffset> <feComposite in="shadowOffsetInner1" in2="SourceAlpha" k2="-1" k3="1" operator="arithmetic" result="shadowInnerInner1"></feComposite> <feColorMatrix in="shadowInnerInner1" values="0 0 0 0 0.737254902 0 0 0 0 0.866666667 0 0 0 0 0.964705882 0 0 0 1 0"></feColorMatrix> </filter> </defs> <g fill="none" fill-rule="evenodd" transform="translate(3 3)"> <use fill="#FFF" xlink:href="#resource-icon-2-a"></use> <path stroke="#42A7F7" stroke-width="2.768" d="M59.6694533,0.128400117 C59.6564531,0.267899887 59.7046746,0.402853954 59.8062149,0.502132032 L70.543332,11.0000356 C70.6295175,11.0843009 70.7452637,11.1314826 70.8657983,11.1314826 C70.8776338,11.1314826 70.889294,11.1310638 70.9007868,11.1302377 L72.3837838,11.0236368 L72.3837838,90.154955 C72.3837838,91.9381879 70.9381879,93.3837838 69.154955,93.3837838 L1.84504505,93.3837838 C0.0618121231,93.3837838 -1.38378378,91.9381879 -1.38378378,90.154955 L-1.38378378,1.84504505 C-1.38378378,0.0618121231 0.0618121231,-1.38378378 1.84504505,-1.38378378 L58.2916394,-1.38378378 L59.8103755,-1.38378378 L59.6694533,0.128400117 Z"></path> <path stroke="#DCEFFE" stroke-width="1.845" d="M57.4643125,0.922522523 L1.84504505,0.922522523 C1.33554992,0.922522523 0.922522523,1.33554992 0.922522523,1.84504505 L0.922522523,90.154955 C0.922522523,90.6644501 1.33554992,91.0774775 1.84504505,91.0774775 L69.154955,91.0774775 C69.6644501,91.0774775 70.0774775,90.6644501 70.0774775,90.154955 L70.0774775,13.3231449 C69.649952,13.1960927 69.2555451,12.9664208 68.9310006,12.6491069 L58.1938835,2.15120333 C57.8402966,1.80549409 57.5931119,1.38072674 57.4643125,0.922522523 Z"></path> <use fill="#FFF" xlink:href="#resource-icon-2-b"></use> <path stroke="#42A7F7" stroke-width="2.768" d="M68.9140627,13.1744961 L60.845045,13.1744961 C59.0618121,13.1744961 57.6162162,11.7289002 57.6162162,9.94566723 L57.6162162,1.85391999 C57.6162162,0.0706870706 59.0618121,-1.37490884 60.845045,-1.37490884 C61.7029574,-1.37490884 62.5255988,-1.03348165 63.1313807,-0.425993364 L71.2003983,7.66575387 C72.4595597,8.92846218 72.4566843,10.9728415 71.193976,12.2320029 C70.5887163,12.8355624 69.7688278,13.1744961 68.9140627,13.1744961 Z"></path> <path stroke="#DCEFFE" stroke-width="1.845" d="M68.9140627,10.8681898 C69.1582813,10.8681898 69.3925351,10.7713516 69.5654665,10.598906 C69.9262403,10.2391456 69.9270618,9.65503722 69.5673014,9.29426341 L61.4982838,1.20251618 C61.3252033,1.02894809 61.0901629,0.93139747 60.845045,0.93139747 C60.3355499,0.93139747 59.9225225,1.34442487 59.9225225,1.85391999 L59.9225225,9.94566723 C59.9225225,10.4551623 60.3355499,10.8681898 60.845045,10.8681898 L68.9140627,10.8681898 Z"></path> <path fill="#42A7F7" d="M42.6363644,40.6561247 L33.5120625,46.0955823 C33.0376785,46.3783866 32.4238561,46.2230805 32.1410518,45.7486965 C32.0487364,45.5938441 32,45.4169156 32,45.2366341 L32,34.3574147 C32,33.8051299 32.4477153,33.3574147 33,33.3574147 C33.1802898,33.3574147 33.3572262,33.4061556 33.5120836,33.498479 L42.6363855,38.9382408 C43.1107626,39.2210568 43.2660535,39.834883 42.9832376,40.30926 C42.8982052,40.4518877 42.7789942,40.5710958 42.6363644,40.6561247 Z"></path> <path stroke="#BCDDF6" stroke-linecap="round" stroke-width="2.56" d="M24,74 L28.7162085,74"></path> <path stroke="#42A7F7" stroke-linecap="round" stroke-width="2.56" d="M33,74 L39.7162085,74"></path> <path stroke="#BCDDF6" stroke-linecap="round" stroke-width="2.56" d="M44.443196 74.2L51.5343321 74.2M18.4210362 68.2L47.8935705 68.2"></path> <path stroke="#42A7F7" stroke-linecap="round" stroke-width="2.56" d="M51.3988764,68.2 L56.1853933,68.2"></path> <g> <use fill="#000" filter="url(#resource-icon-2-c)" xlink:href="#resource-icon-2-d"></use> <use stroke="#42A7F7" stroke-width="2" xlink:href="#resource-icon-2-d"></use> </g> </g> </svg> 