<svg width="70" height="70" viewBox="0 0 70 70" fill="none" xmlns="http://www.w3.org/2000/svg">
<path d="M68.615 63.7388L55.7279 50.8517C59.9075 45.6272 62.6939 38.6612 62.6939 31.3469C62.6939 13.932 48.7619 2.80264e-06 31.3469 2.80264e-06C13.932 2.80264e-06 0 13.932 0 31.3469C0 48.7619 13.932 62.6939 31.3469 62.6939C38.6612 62.6939 45.6272 60.2558 50.8517 55.7279L63.7388 68.615C64.4353 69.3116 65.4802 69.6599 66.1769 69.6599C66.8735 69.6599 67.9184 69.3116 68.615 68.615C70.0082 67.2218 70.0082 65.132 68.615 63.7389V63.7388ZM6.96604 31.3469C6.96604 17.7633 17.7633 6.96596 31.347 6.96596C44.9307 6.96596 55.728 17.7633 55.728 31.3469C55.728 37.9646 52.9416 44.234 48.762 48.4136C44.2341 52.9415 38.3131 55.3796 31.6953 55.3796C17.7633 55.7279 6.96612 44.9306 6.96612 31.3469H6.96604Z" fill="#848991" fill-opacity="0.6"/>
</svg>
