<svg width="77" height="77" viewBox="0 0 77 77" fill="none" xmlns="http://www.w3.org/2000/svg">
<path d="M76.6259 3.48306C76.6259 3.13474 76.6259 2.78649 76.2775 2.43816V2.08984C76.2775 1.74151 75.9292 1.39327 75.581 1.04494C75.2327 0.696614 74.8844 0.696613 74.5361 0.348368H74.1878C73.8394 0.348368 73.4912 0.348365 73.1429 3.89456e-05C73.1429 0.348365 73.1429 0.348368 73.1429 0.348368C72.7945 0.348368 72.4463 0.34837 72.098 0.696697L2.43812 25.0777C1.0449 25.426 0 26.4709 0 28.2124C0 29.6056 0.696571 30.9987 2.0898 31.6954L32.0435 44.9307L45.2789 74.8844C45.9754 76.2777 47.0203 76.9742 48.4135 76.9742C49.8068 76.9742 51.1999 75.9293 51.5482 74.5361L75.9292 4.87628C76.6258 4.52796 76.6258 4.17972 76.6258 3.48306C76.6258 3.83139 76.6258 3.83139 76.6258 3.48306H76.6259ZM59.9075 12.1905L34.1334 37.9646L12.8871 28.5605L59.9075 12.1905ZM48.4136 64.0871L39.0096 42.8409L64.7837 17.0667L48.4136 64.0871V64.0871Z" fill="#2293D7"/>
</svg>
