<svg width="84" height="84" viewBox="0 0 84 84" fill="none" xmlns="http://www.w3.org/2000/svg">
<path d="M0.00288248 36.5296V33.9383C0.00288248 32.2107 0.560161 30.6503 1.67472 29.2571L9.44876 18.8082C9.67167 18.4738 10.006 18.0837 10.4519 17.6379V5.26629C10.4519 3.81736 10.9813 2.59135 12.0401 1.58824C13.0989 0.585142 14.3249 0.0557279 15.7181 0H67.8795C69.3284 0 70.5544 0.529414 71.5575 1.58824C72.5606 2.64707 73.09 3.87309 73.1457 5.26629V17.6379C73.5916 18.0837 73.9259 18.4738 74.1488 18.8082L81.9229 29.2571C83.0374 30.6503 83.5947 32.2107 83.5947 33.9383V36.5296C83.5947 38.7588 82.8424 40.6256 81.3377 42.1303C79.8331 43.6349 77.9662 44.3873 75.7371 44.3873V78.4091C75.7371 79.8023 75.2355 81.0005 74.2324 82.0036C73.2293 83.0067 72.0033 83.5361 70.5544 83.5918H13.0432C11.65 83.5918 10.424 83.0624 9.36517 82.0036C8.30634 80.9448 7.80479 79.7466 7.86051 78.4091V44.3873C5.68713 44.3873 3.82024 43.6349 2.25986 42.1303C0.699481 40.6256 -0.0528454 38.7588 0.00288248 36.5296V36.5296ZM5.26917 36.5296C5.26917 37.3098 5.49208 37.9507 5.9379 38.4522C6.38373 38.9538 7.0246 39.2046 7.86051 39.2046H12.7088L23.1578 20.898H15.7181C14.8265 20.898 14.102 21.2323 13.5448 21.9011L5.68713 32.35C5.40849 32.8516 5.26917 33.381 5.26917 33.9383V36.5296V36.5296ZM13.0432 78.4091H30.0124V52.2449C30.0124 51.4647 30.2631 50.8517 30.7647 50.4059C31.2662 49.9601 31.9071 49.7093 32.6873 49.6535H52.2478C53.028 49.6535 53.641 49.9043 54.0868 50.4059C54.5326 50.9074 54.7834 51.5204 54.8391 52.2449V78.4091H70.5544V44.3873H13.0432V78.4091V78.4091ZM15.7181 39.2046H26.5851L31.8514 20.898H26.1671L15.7181 39.2046ZM15.7181 15.7153H67.8795V5.26629H15.7181V15.7153V15.7153ZM29.4272 39.2046H40.4613V20.898H34.6099L29.4272 39.2046ZM32.6873 78.4091H52.2478V52.2449H32.6873V78.4091ZM43.1363 39.2046H54.1704L48.9877 20.898H43.1363V39.2046ZM51.7462 20.898L57.0125 39.2046H67.8795L57.5141 20.898H51.7462ZM60.4398 20.898L70.8888 39.2046H75.7371C76.5173 39.2046 77.1582 38.9538 77.6597 38.4522C78.1613 37.9507 78.3842 37.3098 78.3284 36.5296V33.9383C78.3284 33.381 78.1891 32.8516 77.9105 32.35L70.0528 21.9011C69.4956 21.2323 68.7711 20.898 67.8795 20.898H60.4398V20.898Z" fill="#2293D7"/>
</svg>
