<svg width="72" height="72" viewBox="0 0 72 72" fill="none" xmlns="http://www.w3.org/2000/svg">
<path d="M54.7526 43.6349C54.7526 42.0746 54.4461 40.6535 53.8331 39.3718C53.2201 38.09 52.4678 37.0312 51.5762 36.1953C50.6845 35.3594 49.5421 34.607 48.1489 33.9383C46.7557 33.2696 45.474 32.7401 44.3037 32.3501C43.1334 31.96 41.7681 31.5977 40.2077 31.2634L35.3593 30.0931C34.412 29.8702 33.7154 29.703 33.2696 29.5915C32.8237 29.4801 32.2943 29.3129 31.6813 29.09C31.0683 28.8671 30.5946 28.6163 30.2602 28.3376C29.9259 28.059 29.6751 27.7246 29.5079 27.3345C29.3407 26.9444 29.2293 26.4986 29.1736 25.9971C29.1736 23.6008 31.4027 22.4026 35.8609 22.4026C37.1984 22.4026 38.3965 22.5698 39.4553 22.9042C40.5142 23.2385 41.3501 23.6844 41.9631 24.2416C42.5761 24.7989 43.1613 25.3283 43.7185 25.8299C44.2758 26.3314 44.9167 26.7773 45.6411 27.1674C46.3656 27.5575 47.1179 27.7525 47.8981 27.7525C49.347 27.7525 50.5173 27.2509 51.409 26.2478C52.3006 25.2447 52.7464 24.0466 52.7464 22.6534C52.7464 20.9258 51.8548 19.3933 50.0715 18.0558C48.2882 16.7184 46.087 15.6595 43.4678 14.8794C40.8485 14.0992 38.0343 13.7369 35.025 13.7927C32.9073 13.7927 30.8454 14.0434 28.8392 14.545C26.833 15.0465 24.9661 15.771 23.2385 16.7184C21.511 17.6658 20.1456 19.0032 19.1425 20.7308C18.1394 22.4584 17.61 24.4646 17.5543 26.7494C17.5543 28.6441 17.8329 30.316 18.3902 31.7649C18.9475 33.2138 19.8391 34.3841 21.0651 35.2758C22.2912 36.1674 23.5172 36.9197 24.7432 37.5327C25.9692 38.1458 27.5853 38.6473 29.5915 39.0374L36.3624 40.7092C39.2046 41.378 40.96 41.9352 41.6287 42.3811C42.6318 42.9941 43.1334 43.9415 43.1334 45.2232C43.1334 46.3935 42.4925 47.3966 41.2108 48.2325C39.929 49.0684 38.3129 49.4585 36.3624 49.4028C34.7463 49.4028 33.3253 49.152 32.0993 48.6505C30.8733 48.1489 29.8423 47.5359 29.0064 46.8114C28.1704 46.087 27.4738 45.3904 26.9166 44.7216C26.3593 44.0529 25.6348 43.4678 24.7432 42.9662C23.8515 42.4647 23.0156 42.2139 22.2354 42.2139C20.675 42.2139 19.5048 42.6876 18.7246 43.6349C17.9444 44.5823 17.5543 45.7247 17.5543 47.0622C17.5543 49.9601 19.449 52.4121 23.2385 54.4183C27.028 56.4245 31.542 57.4555 36.7804 57.5112C39.0653 57.5112 41.2386 57.2326 43.3006 56.6753C45.3625 56.118 47.2851 55.2821 49.0684 54.1675C50.8517 53.053 52.217 51.604 53.1644 49.8207C54.1118 48.0375 54.6412 45.9755 54.7526 43.6349ZM71.6382 53.7496C71.6382 58.7093 69.8828 62.9447 66.3719 66.4555C62.8611 69.9664 58.6536 71.7218 53.7496 71.7218C49.6814 71.7218 46.0312 70.4679 42.799 67.9602C40.4027 68.4617 38.09 68.7125 35.8609 68.7125C31.4027 68.7125 27.1395 67.8487 23.0713 66.1211C19.0032 64.3936 15.4924 62.053 12.5388 59.0994C9.5852 56.1459 7.27249 52.6629 5.60065 48.6505C3.92882 44.6381 3.06503 40.3749 3.00931 35.8609C3.00931 33.5761 3.26008 31.2355 3.76163 28.8392C1.25388 25.607 0 21.9847 0 17.9723C0 13.0125 1.75543 8.77715 5.26629 5.2663C8.77714 1.75544 12.9846 1.05068e-05 17.8887 1.05068e-05C21.9568 1.05068e-05 25.607 1.25389 28.8392 3.76164C31.2355 3.26009 33.5761 3.00932 35.8609 3.00932C40.2634 3.00932 44.4987 3.8731 48.5669 5.60067C52.635 7.32823 56.1459 9.6688 59.0994 12.6224C62.053 15.576 64.3936 19.0589 66.1211 23.0714C67.8487 27.0838 68.6846 31.3469 68.6289 35.8609C68.6289 38.1458 68.406 40.4863 67.9602 42.8826C70.4122 46.1148 71.6382 49.7372 71.6382 53.7496V53.7496Z" fill="white"/>
</svg>
