<svg width="56" height="77" viewBox="0 0 56 77" fill="none" xmlns="http://www.w3.org/2000/svg">
<path d="M45.2789 0.000101219H10.449C4.52792 0.000101219 0 4.52802 0 10.4491V66.177C0 72.0981 4.52792 76.626 10.449 76.626H45.2789C51.2 76.626 55.7279 72.0981 55.7279 66.177V10.4491C55.7279 4.52802 51.2 0.000101219 45.2789 0.000101219ZM48.762 66.1769C48.762 68.2667 47.3687 69.6599 45.2789 69.6599H10.449C8.35918 69.6599 6.96596 68.2667 6.96596 66.1769V10.449C6.96596 8.3592 8.35918 6.96598 10.449 6.96598H45.2789C47.3687 6.96598 48.762 8.3592 48.762 10.449V66.1769V66.1769ZM25.4259 56.7728C24.7293 57.4694 24.381 58.1661 24.381 59.211C24.381 60.2559 24.7293 60.9524 25.4259 61.6491C26.1224 62.3456 26.8191 62.694 27.864 62.694C28.9089 62.694 29.6055 62.3456 30.3021 61.6491C30.9987 60.9525 31.347 59.9076 31.347 59.211C31.347 58.5143 30.9987 57.4695 30.3021 56.7728C28.9089 55.3796 26.8191 55.3796 25.426 56.7728H25.4259Z" fill="white"/>
</svg>
