<svg width="340" height="66" viewBox="0 0 340 66" fill="none" xmlns="http://www.w3.org/2000/svg">
<path d="M325.257 15L331.647 8.20108L338.037 15L340 12.9069L331.647 4L323.295 12.9069L325.257 15Z" fill="white"/>
<path d="M21.078 56.66C31.3252 56.66 38.135 50.258 38.135 42.074C38.135 32.636 32.4926 29.468 21.5969 27.95C13.5548 26.762 11.9983 24.848 11.9983 21.02C11.9983 17.39 14.7222 14.816 19.9755 14.816C25.2936 14.816 28.0824 16.928 28.9256 21.878H36.8379C35.9299 12.836 29.9632 8.216 19.9755 8.216C10.312 8.216 3.82647 14.024 3.82647 21.746C3.82647 30.59 9.07977 34.022 20.1701 35.54C27.6933 36.794 29.8335 38.444 29.8335 42.8C29.8335 47.156 26.2016 50.06 21.078 50.06C13.2305 50.06 11.3497 46.1 10.766 41.348H2.46451C3.11306 50.258 8.43121 56.66 21.078 56.66ZM59.9761 56.594C62.3758 56.594 64.062 56.198 65.2943 55.736V49.4C64.1917 49.862 63.0243 50.06 61.4678 50.06C59.0033 50.06 57.5764 48.674 57.5764 45.638V27.488H65.0348V21.482H57.5764V13.892H49.7289V21.482H45.189V27.488H49.7289V46.364C49.7289 52.898 53.2311 56.594 59.9761 56.594ZM84.1688 56.66C89.3572 56.66 92.3406 54.746 94.5456 51.776V56H102.263V33.362C102.263 23.924 96.2967 20.756 88.7087 20.756C81.1206 20.756 74.8296 24.122 74.181 32.174H81.7691C82.1582 28.742 84.1688 26.762 88.2547 26.762C92.8594 26.762 94.4159 29.072 94.4159 33.692V35.474H90.2003C80.472 35.474 72.8191 38.378 72.8191 46.43C72.8191 53.624 77.9426 56.66 84.1688 56.66ZM86.0496 50.918C82.1582 50.918 80.6017 49.004 80.6017 46.1C80.6017 41.876 84.4282 40.49 90.3949 40.49H94.4159V43.922C94.4159 48.344 90.8489 50.918 86.0496 50.918ZM113.852 56H121.699V38.048C121.699 30.722 125.85 28.478 132.725 28.412V20.954C127.018 21.02 123.84 23.594 121.699 27.95V21.482H113.852V56ZM154.085 56.594C156.485 56.594 158.171 56.198 159.403 55.736V49.4C158.3 49.862 157.133 50.06 155.577 50.06C153.112 50.06 151.685 48.674 151.685 45.638V27.488H159.144V21.482H151.685V13.892H143.838V21.482H139.298V27.488H143.838V46.364C143.838 52.898 147.34 56.594 154.085 56.594ZM169.724 56H178.35V36.662H194.174V29.864H178.35V15.806H198.455V8.81H169.724V56ZM208.093 56H215.94V5.51H208.093V56ZM243.276 50.456C237.309 50.456 233.872 46.034 233.872 38.972V38.444C233.872 31.316 237.439 27.026 243.276 27.026C249.113 27.026 252.615 31.382 252.615 38.51V38.972C252.615 46.034 249.113 50.456 243.276 50.456ZM243.211 56.66C253.199 56.66 260.657 49.664 260.657 38.906V38.378C260.657 27.818 253.199 20.756 243.276 20.756C233.288 20.756 225.83 27.884 225.83 38.576V39.104C225.83 49.598 233.223 56.66 243.211 56.66ZM276.395 56H284.438L291.312 32.768L297.603 56H305.58L316.217 21.482H308.564L301.495 46.43L294.879 21.482H288.329L281.13 46.43L274.385 21.482H266.019L276.395 56Z" fill="white"/>
</svg>
