<svg width="84" height="84" viewBox="0 0 84 84" fill="none" xmlns="http://www.w3.org/2000/svg">
<path d="M0.00288248 75.7371V33.9412C0.00288248 31.7678 0.755209 29.9288 2.25986 28.4241C3.76452 26.9194 5.6314 26.1393 7.86051 26.0835H15.7181C17.5014 26.0835 19.1733 26.7523 20.7337 28.0897C21.4024 27.7554 22.3219 27.3095 23.4922 26.7523C30.3467 23.1857 33.8297 16.8884 33.9412 7.86051C33.9412 5.68712 34.7214 3.82024 36.2817 2.25986C37.8421 0.699476 39.6811 -0.0528516 41.7988 0.00287628C44.9753 0.00287628 47.901 1.78617 50.5759 5.35275C53.2509 8.91934 54.6162 13.0153 54.6719 17.6408C54.6719 21.3188 54.449 24.1888 54.0032 26.2507C67.2107 26.5851 74.6225 26.9752 76.2386 27.421C78.6349 28.0897 80.474 29.2879 81.7557 31.0154C83.0374 32.743 83.6504 34.4984 83.5947 36.2817V38.2043C83.4833 40.3777 82.7309 42.2725 81.3377 43.8886C82.2851 45.7833 82.5916 47.8731 82.2573 50.158C81.8672 53.1673 80.7247 55.5636 78.83 57.3469C79.7216 59.4088 79.7216 61.7215 78.83 64.285C77.8826 67.5729 76.4337 69.8857 74.4832 71.2231C74.8733 72.7278 74.8733 74.2324 74.4832 75.7371C74.1488 76.7402 73.7587 77.6876 73.3129 78.5792C71.4739 81.9229 68.381 83.5947 64.0342 83.5947H49.6564C44.5295 83.5947 39.3468 83.0096 34.1084 81.8393C28.9814 80.6133 25.4427 79.7774 23.4922 79.3315H23.325C23.325 79.2201 23.2414 79.1643 23.0742 79.1643H22.7399V78.9972C21.1795 82.0622 18.8389 83.5947 15.7181 83.5947H7.86051C5.68713 83.5947 3.82024 82.8424 2.25986 81.3377C0.699481 79.8331 -0.0528454 77.9662 0.00288248 75.7371V75.7371ZM5.26917 75.7371C5.26917 76.5173 5.49208 77.1581 5.9379 77.6597C6.38373 78.1612 7.0246 78.412 7.86051 78.412H15.7181C16.4426 78.412 17.0556 78.1612 17.5572 77.6597C18.0587 77.1581 18.3095 76.5173 18.3095 75.7371V33.9412C18.3095 33.2167 18.0587 32.6037 17.5572 32.1021C17.0556 31.6006 16.4426 31.3498 15.7181 31.3498H7.86051C7.08032 31.3498 6.43945 31.6006 5.9379 32.1021C5.43635 32.6037 5.21344 33.2167 5.26917 33.9412V75.7371V75.7371ZM7.86051 71.8083C7.86051 70.7494 8.22275 69.8299 8.94721 69.0497C9.67167 68.2695 10.619 67.8794 11.7893 67.8794C12.9596 67.8794 13.8791 68.2695 14.5479 69.0497C15.2166 69.8299 15.6067 70.7494 15.7181 71.8083C15.8296 72.8671 15.4395 73.8145 14.5479 74.6504C13.6562 75.4863 12.7367 75.8485 11.7893 75.7371C10.842 75.6256 9.89458 75.2634 8.94721 74.6504C7.99983 74.0374 7.6376 73.09 7.86051 71.8083V71.8083ZM10.4519 71.8083C10.4519 72.6999 10.8977 73.1457 11.7893 73.1457C12.681 73.1457 13.0989 72.6999 13.0432 71.8083C12.9875 70.9166 12.5695 70.4987 11.7893 70.5544C11.0091 70.6101 10.5633 71.0281 10.4519 71.8083ZM20.9008 71.5575C20.9008 72.8392 21.6532 73.5916 23.1578 73.8145C24.3838 74.1488 28.4241 75.1241 35.2786 76.7402C40.1827 77.8547 44.9753 78.412 49.6564 78.412H64.0342C66.3191 78.412 67.8795 77.6318 68.7154 76.0714C69.0497 75.2355 69.2727 74.5947 69.3841 74.1488C69.7185 73.4801 69.6627 72.6999 69.2169 71.8083C68.7711 70.9166 67.963 70.4987 66.7928 70.5544H62.6968C61.8051 70.5544 61.3593 70.1086 61.3593 69.2169C61.3593 68.3253 61.8051 67.8794 62.6968 67.8794H66.9599C68.6875 67.8794 70.0528 67.6008 71.0559 67.0435C72.059 66.4862 72.6721 65.929 72.895 65.3717C73.1179 64.8144 73.4244 63.9785 73.8145 62.8639C74.9848 59.2416 73.8981 57.4305 70.5544 57.4305H65.2881C64.4522 57.4305 64.0342 57.0125 64.0342 56.1766C64.0342 55.3407 64.4522 54.8948 65.2881 54.8391H71.4739C74.6504 54.8391 76.573 53.0001 77.2417 49.3221C77.3532 48.096 77.1024 46.9815 76.4894 45.9784C75.8764 44.9753 74.7061 44.4459 72.9786 44.3901H67.8795C67.0435 44.3901 66.6256 43.9722 66.6256 43.1363C66.6256 42.3003 67.0435 41.8545 67.8795 41.7988H73.1457C76.5451 41.7988 78.2727 40.5449 78.3284 38.0372V36.2817C78.3284 34.1641 77.2975 32.8545 75.2355 32.3529C72.7278 31.6842 63.3376 31.3498 47.0651 31.3498C48.1239 28.0619 48.7927 25.7213 49.0713 24.3281C49.3499 22.9349 49.4893 20.7058 49.4893 17.6408C49.4893 14.4643 48.5976 11.5943 46.8143 9.03079C45.031 6.46731 43.3592 5.21344 41.7988 5.26916C40.0712 5.26916 39.2075 6.13294 39.2075 7.86051C39.096 12.9875 37.8143 17.8079 35.3622 22.3219C32.9102 26.8359 28.9535 30.2353 23.4922 32.5201C23.3807 32.5201 23.2693 32.548 23.1578 32.6037L22.9906 32.6873C21.5974 33.0774 20.9008 33.9969 20.9008 35.4458V71.5575V71.5575Z" fill="#2293D7"/>
</svg>
