<svg width="84" height="68" viewBox="0 0 84 68" fill="none" xmlns="http://www.w3.org/2000/svg">
<path d="M0.00288248 36.5296V7.85765C0.00288248 5.62853 0.755209 3.76165 2.25986 2.25699C3.76452 0.752341 5.6314 1.38469e-05 7.86051 1.38469e-05H47.0651C49.2385 1.38469e-05 51.0775 0.752341 52.5821 2.25699C54.0868 3.76165 54.8391 5.62853 54.8391 7.85765V13.0403H65.2881C68.1302 13.0403 70.3036 14.1828 71.8083 16.4676L82.2573 32.0993C83.1489 33.4368 83.5947 34.9135 83.5947 36.5296V52.2449C83.5947 54.4183 82.8424 56.2573 81.3377 57.762C79.8331 59.2666 77.9662 60.019 75.7371 60.019H72.8114C72.1426 62.3595 70.8888 64.2543 69.0497 65.7032C67.2107 67.1521 65.0931 67.8766 62.6968 67.8766C60.3005 67.8766 58.1828 67.1521 56.3438 65.7032C54.5048 64.2543 53.2509 62.3595 52.5821 60.019H38.8731C38.2044 62.3595 36.9505 64.2543 35.1115 65.7032C33.2724 67.1521 31.1548 67.8766 28.7585 67.8766C26.3622 67.8766 24.2445 67.1521 22.4055 65.7032C20.5665 64.2543 19.3126 62.3595 18.6439 60.019H15.7181C13.489 60.019 11.6221 59.2666 10.1175 57.762C8.61284 56.2573 7.86051 54.4183 7.86051 52.2449V44.3873C5.68713 44.3873 3.82024 43.635 2.25986 42.1303C0.699481 40.6256 -0.0528454 38.7588 0.00288248 36.5296V36.5296ZM5.26917 36.5296C5.26917 37.3098 5.49208 37.9507 5.9379 38.4523C6.38373 38.9538 7.0246 39.1767 7.86051 39.121H47.0651C47.7896 39.121 48.4026 38.8981 48.9041 38.4523C49.4057 38.0064 49.6564 37.3656 49.6564 36.5296V7.85765C49.6564 7.07746 49.4057 6.43659 48.9041 5.93504C48.4026 5.43349 47.7896 5.18271 47.0651 5.18271H7.86051C7.08032 5.18271 6.43945 5.43349 5.9379 5.93504C5.43635 6.43659 5.21344 7.07746 5.26917 7.85765V36.5296V36.5296ZM13.0432 52.2449C13.0432 52.9694 13.294 53.5824 13.7955 54.0839C14.2971 54.5855 14.938 54.8363 15.7181 54.8363H18.6439C19.2569 52.5514 20.5107 50.6845 22.4055 49.2356C24.3002 47.7867 26.4179 47.0344 28.7585 46.9786C31.099 46.9229 33.2167 47.6752 35.1115 49.2356C37.0062 50.796 38.2601 52.6629 38.8731 54.8363H52.5821C53.2509 52.5514 54.5048 50.6845 56.3438 49.2356C58.1828 47.7867 60.3005 47.0344 62.6968 46.9786C65.0931 46.9229 67.2107 47.6752 69.0497 49.2356C70.8888 50.796 72.1426 52.6629 72.8114 54.8363H75.7371C76.5173 54.8363 77.1582 54.5855 77.6597 54.0839C78.1613 53.5824 78.3842 52.9694 78.3284 52.2449V36.5296C78.3284 35.9724 78.1891 35.4987 77.9105 35.1086L67.4615 19.3933C67.0157 18.6131 66.2912 18.223 65.2881 18.223H54.8391V36.5296C54.8391 38.703 54.0868 40.5699 52.5821 42.1303C51.0775 43.6907 49.2385 44.443 47.0651 44.3873H13.0432V52.2449V52.2449ZM23.4922 57.4276C23.4922 58.8765 24.0216 60.1025 25.0804 61.1056C26.1393 62.1088 27.3653 62.6382 28.7585 62.6939C30.1517 62.7496 31.3777 62.2202 32.4365 61.1056C33.4953 59.9911 33.9969 58.7651 33.9412 57.4276C33.8854 56.0901 33.3839 54.8641 32.4365 53.7496C31.4891 52.635 30.2631 52.1335 28.7585 52.2449C27.2538 52.3564 26.0278 52.8579 25.0804 53.7496C24.1331 54.6412 23.6036 55.8672 23.4922 57.4276ZM57.5141 57.4276C57.5141 58.8765 58.0156 60.1025 59.0187 61.1056C60.0218 62.1088 61.2478 62.6382 62.6968 62.6939C64.1457 62.7496 65.3717 62.2202 66.3748 61.1056C67.3779 59.9911 67.8795 58.7651 67.8795 57.4276C67.8795 56.0901 67.3779 54.8641 66.3748 53.7496C65.3717 52.635 64.1457 52.1335 62.6968 52.2449C61.2478 52.3564 60.0218 52.8579 59.0187 53.7496C58.0156 54.6412 57.5141 55.8672 57.5141 57.4276ZM57.5141 39.121V23.4893C57.5141 22.7091 57.737 22.0961 58.1828 21.6503C58.6286 21.2045 59.2695 20.9537 60.1054 20.898H62.6968C63.6999 20.898 64.3965 21.2602 64.7866 21.9847L72.6442 33.7711C72.9786 34.2169 73.1457 34.7185 73.1457 35.2758V39.121C73.1457 39.9012 72.895 40.5421 72.3934 41.0436C71.8919 41.5452 71.2789 41.7959 70.5544 41.7959H60.1054C59.3252 41.7959 58.6844 41.5452 58.1828 41.0436C57.6812 40.5421 57.4583 39.9012 57.5141 39.121ZM60.1054 39.121H70.5544V35.2758L62.6968 23.4893H60.1054V39.121Z" fill="#2293D7"/>
</svg>
