<svg width="84" height="70" viewBox="0 0 84 70" fill="none" xmlns="http://www.w3.org/2000/svg">
<path d="M82.547 28.9089L72.098 18.4599C71.4015 17.7633 70.7048 17.415 69.6599 17.415H59.2109V3.48302C59.2109 1.39323 57.8177 2.80264e-06 55.7279 2.80264e-06H3.48302C1.39322 2.80264e-06 0 1.39323 0 3.48302V48.762C0 50.8518 1.39322 52.245 3.48302 52.245H8.35918C7.31429 53.9864 6.96596 55.728 6.96596 57.4695C6.96596 64.0872 12.5388 69.6599 19.1564 69.6599C25.774 69.6599 31.3469 64.0871 31.3469 57.4695C31.3469 55.728 30.9985 53.9864 29.9536 52.245H53.2897C52.5931 53.9864 51.8965 55.728 51.8965 57.4695C51.8965 64.0872 57.4693 69.6599 64.0869 69.6599C70.7046 69.6599 76.2774 64.0871 76.2774 57.4695C76.2774 55.728 75.9291 53.9864 74.8842 52.245H80.1087C82.1984 52.245 83.5917 50.8518 83.5917 48.762V31.347C83.5917 30.3021 83.2433 29.6055 82.5468 28.9089H82.547ZM6.96604 6.96604H52.245V45.2789H6.96604V6.96604V6.96604ZM24.3811 57.4694C24.3811 60.2557 21.9429 62.6939 19.1566 62.6939C16.3702 62.6939 13.9321 60.2557 13.9321 57.4694C13.9321 54.683 16.3702 52.2449 19.1566 52.2449C21.9429 52.2449 24.3811 54.683 24.3811 57.4694ZM69.6599 57.4694C69.6599 60.2557 67.2218 62.6939 64.4354 62.6939C61.6491 62.6939 59.2109 60.2557 59.2109 57.4694C59.2109 54.683 61.6491 52.2449 64.4354 52.2449C67.2218 52.2449 69.6599 54.683 69.6599 57.4694ZM76.626 45.2789H59.211V24.381H68.2668L76.626 32.7402V45.2789V45.2789Z" fill="#2293D7"/>
</svg>
