<svg width="74" height="60" viewBox="0 0 74 60" fill="none" xmlns="http://www.w3.org/2000/svg">
<path d="M73.4772 7.1053C71.4153 10.1146 68.9075 12.7059 65.954 14.8793C65.954 15.3252 65.954 15.966 65.954 16.802C65.954 20.8701 65.3688 24.9104 64.1985 28.9228C63.0282 32.9352 61.245 36.8083 58.8487 40.542C56.4524 44.2758 53.5824 47.5359 50.2387 50.3223C46.895 53.1087 42.8826 55.3935 38.2015 57.1768C33.5203 58.9601 28.477 59.796 23.0713 59.6846C14.6564 59.6846 6.96599 57.4276 0 52.9136C1.05883 53.0251 2.25698 53.0808 3.59445 53.0808C10.6162 53.0808 16.8577 50.9353 22.319 46.6442C19.0311 46.5885 16.1054 45.5854 13.5419 43.6349C10.9784 41.6845 9.1951 39.2046 8.192 36.1953C9.25083 36.3624 10.1982 36.446 11.0341 36.446C12.3716 36.446 13.7091 36.2789 15.0465 35.9445C11.5357 35.22 8.63782 33.4925 6.35298 30.7618C4.06814 28.0311 2.92571 24.8268 2.92571 21.1487V20.9815C5.04337 22.1518 7.32822 22.7927 9.78024 22.9042C7.71831 21.511 6.07434 19.7277 4.84833 17.5543C3.62231 15.3809 3.00931 12.9846 3.00931 10.3654C3.00931 7.63471 3.70591 5.09909 5.0991 2.75852C8.8886 7.38394 13.4583 11.0898 18.8082 13.8762C24.158 16.6626 29.9537 18.1951 36.1953 18.4738C35.9166 17.3035 35.7773 16.1611 35.7773 15.0465C35.7773 10.8669 37.2541 7.32821 40.2077 4.43036C43.1613 1.53251 46.7 0.0557203 50.8238 -7.62939e-06C55.2263 -7.62939e-06 58.9044 1.58824 61.858 4.76472C65.2574 4.09599 68.4617 2.86998 71.471 1.08669C70.3007 4.65327 68.0716 7.43967 64.7837 9.44587C67.6815 9.1115 70.5794 8.33131 73.4772 7.1053V7.1053Z" fill="white"/>
</svg>
