<svg width="74" height="60" viewBox="0 0 74 60" fill="none" xmlns="http://www.w3.org/2000/svg">
<path d="M73.4772 7.10524C71.4153 10.1145 68.9075 12.7059 65.954 14.8793C65.954 15.3251 65.954 15.966 65.954 16.8019C65.954 20.87 65.3688 24.9103 64.1985 28.9227C63.0282 32.9351 61.245 36.8082 58.8487 40.542C56.4524 44.2757 53.5824 47.5358 50.2387 50.3222C46.895 53.1086 42.8826 55.3935 38.2015 57.1767C33.5203 58.96 28.477 59.796 23.0713 59.6845C14.6564 59.6845 6.96599 57.4275 0 52.9136C1.05883 53.025 2.25698 53.0807 3.59445 53.0807C10.6162 53.0807 16.8577 50.9352 22.319 46.6442C19.0311 46.5884 16.1054 45.5853 13.5419 43.6349C10.9784 41.6844 9.1951 39.2045 8.192 36.1952C9.25083 36.3624 10.1982 36.446 11.0341 36.446C12.3716 36.446 13.7091 36.2788 15.0465 35.9444C11.5357 35.22 8.63782 33.4924 6.35298 30.7617C4.06814 28.0311 2.92571 24.8267 2.92571 21.1487V20.9815C5.04337 22.1518 7.32822 22.7926 9.78024 22.9041C7.71831 21.5109 6.07434 19.7276 4.84833 17.5542C3.62231 15.3808 3.00931 12.9845 3.00931 10.3653C3.00931 7.63465 3.70591 5.09903 5.0991 2.75846C8.8886 7.38388 13.4583 11.0898 18.8082 13.8762C24.158 16.6626 29.9537 18.1951 36.1953 18.4737C35.9166 17.3034 35.7773 16.161 35.7773 15.0465C35.7773 10.8669 37.2541 7.32815 40.2077 4.4303C43.1613 1.53245 46.7 0.0556592 50.8238 -6.86646e-05C55.2263 -6.86646e-05 58.9044 1.58817 61.858 4.76466C65.2574 4.09593 68.4617 2.86992 71.471 1.08663C70.3007 4.65321 68.0716 7.4396 64.7837 9.44581C67.6815 9.11144 70.5794 8.33125 73.4772 7.10524V7.10524Z" fill="#2293D7"/>
</svg>
