<svg width="84" height="70" viewBox="0 0 84 70" fill="none" xmlns="http://www.w3.org/2000/svg">
<path d="M82.2874 0.700245C81.2425 0.00367379 79.501 0.00367379 78.4561 0.700245C76.018 2.44171 73.2316 3.83494 70.4453 4.87983C63.4793 -1.38956 52.682 -1.73788 45.3677 4.53151C40.8398 8.36277 38.4017 13.5873 38.4017 19.1601C28.3011 18.4635 19.2453 13.239 13.3242 4.87983C12.6276 3.83494 11.5827 3.48661 10.1895 3.48661C8.79628 3.48661 7.75138 4.5315 7.40313 5.5764C7.05481 5.92473 3.57187 14.2839 3.92011 24.3846C4.26844 33.0921 7.75138 44.2376 20.6385 52.2485C15.414 54.6866 9.49293 55.7315 3.57179 55.7315C2.17856 55.7315 0.437093 56.7764 0.0887663 58.1696C-0.25956 59.5629 0.437093 61.3043 1.83024 62.0009C10.5377 66.8771 19.9418 69.3152 28.6493 69.3152C37.3567 69.3152 45.716 67.2254 53.3785 62.6975C68.3554 54.3383 76.7146 38.3165 76.7146 19.1601C76.7146 18.4635 76.7146 18.1152 76.7146 17.4186C80.1976 13.5873 82.6356 9.05943 83.6805 4.18327C84.0288 2.79004 83.3322 1.3969 82.2873 0.700245H82.2874ZM70.4453 13.9356C69.7487 14.6322 69.4004 16.0254 69.4004 17.0703C69.7487 17.7669 69.7487 18.4635 69.7487 19.1601C69.7487 35.8784 62.4344 49.4621 49.8956 56.7764C40.1432 62.3492 28.6493 63.7424 17.1555 60.956C21.6834 59.5628 25.863 57.8213 29.6942 55.0349C31.0875 54.3384 31.4357 53.2935 31.4357 51.9002C31.4357 50.507 30.3908 49.4621 29.3459 49.1139C9.14452 40.0581 9.84117 22.9914 11.931 14.2839C19.5936 21.9465 30.3908 26.4744 41.8847 26.1261C43.6262 26.1261 45.3677 24.3846 45.3677 22.6431V19.1601C45.3677 15.6771 46.7609 12.1941 49.5473 9.756C54.4235 5.22808 62.4344 5.92473 66.614 10.8009C67.6589 11.8458 69.0521 12.1941 70.097 11.8458C70.7936 11.4975 71.8385 11.4975 72.5351 11.1492C71.8386 12.1941 71.1419 12.8907 70.4453 13.9356H70.4453Z" fill="#2293D7"/>
</svg>
