<svg width="56" height="64" viewBox="0 0 56 64" fill="none" xmlns="http://www.w3.org/2000/svg">
<path d="M1 41L7 1H49L55 41" stroke="white" stroke-width="2" stroke-miterlimit="10"/>
<path d="M1 41H55V63H1V41Z" stroke="white" stroke-width="2" stroke-miterlimit="10"/>
<path d="M41 52C41 51.2044 41.3161 50.4413 41.8787 49.8787C42.4413 49.3161 43.2044 49 44 49C44.7956 49 45.5587 49.3161 46.1213 49.8787C46.6839 50.4413 47 51.2044 47 52C47 52.7956 46.6839 53.5587 46.1213 54.1213C45.5587 54.6839 44.7956 55 44 55C43.2044 55 42.4413 54.6839 41.8787 54.1213C41.3161 53.5587 41 52.7956 41 52Z" stroke="white" stroke-width="2" stroke-miterlimit="10"/>
<path d="M19.998 20L27.998 12L35.998 20" stroke="white" stroke-width="2" stroke-miterlimit="10" stroke-linejoin="bevel"/>
<path d="M27.998 12V32" stroke="white" stroke-width="2" stroke-miterlimit="10"/>
</svg>
