<svg width="84" height="84" viewBox="0 0 84 84" fill="none" xmlns="http://www.w3.org/2000/svg">
<path d="M0.309132 79.8302C-0.471058 77.4339 0.22554 75.4834 2.39893 73.9788C9.03055 69.632 17.139 66.3998 26.7242 64.2821C22.043 58.4307 18.7272 51.3254 16.7767 42.9662C16.2194 39.9012 15.9129 36.5018 15.8572 32.768C15.8015 29.0342 16.4424 24.8825 17.7798 20.3128C19.1173 15.7431 20.9563 11.8979 23.2969 8.77714C27.978 2.92571 34.1917 -7.62939e-06 41.9379 -7.62939e-06C49.684 -7.62939e-06 55.8698 2.92571 60.4953 8.77714C62.8915 11.9536 64.7584 15.7988 66.0959 20.3128C67.4334 24.8268 68.0464 28.9785 67.9349 32.768C67.8235 36.5575 67.517 39.9569 67.0154 42.9662C65.0649 51.3254 61.7491 58.4307 57.068 64.2821C66.6532 66.3998 74.7616 69.632 81.3932 73.9788C83.5666 75.4834 84.2911 77.4618 83.5666 79.9138C82.8421 82.3658 81.1424 83.5918 78.4675 83.5918H5.32464C4.15436 83.5918 3.09553 83.2296 2.14815 82.5051C1.20078 81.7807 0.587772 80.889 0.309132 79.8302V79.8302ZM5.32464 78.4091H78.4675C72.3932 74.341 64.9535 71.3317 56.1485 69.3812L49.5447 68.0437C47.037 69.7156 44.5013 70.5515 41.9379 70.5515C39.3744 70.5515 36.8109 69.7156 34.2474 68.0437L27.7273 69.3812C18.8108 71.3317 11.3433 74.341 5.32464 78.4091V78.4091ZM21.4579 28.0869C20.7334 33.8268 21.1792 39.6225 22.7953 45.474C24.4114 51.3254 27.0864 56.5081 30.8201 61.022L31.6561 62.1923C34.7768 65.8146 38.2041 67.6258 41.9379 67.6258C45.6716 67.6258 49.0989 65.8146 52.2197 62.1923L52.972 61.022C56.7058 56.4523 59.3807 51.2697 60.9968 45.474C62.6129 39.6783 63.0587 33.8826 62.3343 28.0869C61.5541 21.7896 59.4364 16.4119 55.9813 11.9536C52.5262 7.49539 47.845 5.26628 41.9379 5.26628C36.0307 5.26628 31.3496 7.49539 27.8944 11.9536C24.4393 16.4119 22.2938 21.7896 21.4579 28.0869V28.0869Z" fill="#2293D7"/>
</svg>
