<svg width="58" height="84" viewBox="0 0 58 84" fill="none" xmlns="http://www.w3.org/2000/svg">
<path d="M0 59.7681C0 55.5328 0.501551 50.8795 1.50465 45.8083C2.50775 40.7371 3.42727 36.3903 4.26318 32.768C5.0991 29.1456 5.46133 24.4088 5.34988 18.5573C5.23842 12.7059 4.31891 6.52013 2.59135 -3.8147e-05L4.26318 1.17025C5.32201 1.89471 6.74307 3.12073 8.52637 4.84829C10.3097 6.57586 12.093 8.49846 13.8762 10.6161C15.6595 12.7338 17.4707 15.4366 19.3097 18.7245C21.1487 22.0125 22.4862 25.3004 23.3221 28.5884C26.833 23.3499 28.6441 18.1673 28.7556 13.0403L31.3469 15.966C32.963 17.9722 34.6627 20.9258 36.446 24.8267C38.2293 28.7277 39.0931 32.6008 39.0374 36.446L40.2913 34.7742C41.1829 33.6039 42.1024 31.932 43.0498 29.7587C43.9972 27.5853 44.443 25.4955 44.3873 23.4893C49.7371 30.1209 53.4988 37.1147 55.6722 44.4708C57.8456 51.8269 58.1242 58.765 56.5081 65.2852C55.7279 68.1273 54.8641 70.4679 53.9167 72.3069C52.9694 74.1459 51.409 76.0407 49.2356 77.9911C47.0622 79.9416 44.0808 81.3348 40.2913 82.1707C36.5018 83.0067 31.7928 83.4803 26.1642 83.5918C18.5295 83.5918 12.2601 81.2234 7.35608 76.4865C2.45203 71.7496 0 66.1768 0 59.7681H0ZM5.26629 59.7681C5.26629 64.6722 7.1889 68.9911 11.0341 72.7249C14.8793 76.4586 19.9227 78.3534 26.1642 78.4091C30.2881 78.4091 33.8547 78.1026 36.864 77.4896C39.8733 76.8766 42.2139 76.1521 43.8857 75.3162C45.5575 74.4803 46.9229 73.31 47.9817 71.8053C49.0405 70.3007 49.7929 69.0747 50.2387 68.1273C50.6845 67.1799 51.0746 65.8146 51.409 64.0313C53.5824 55.1706 51.7991 45.5854 46.0591 35.2757C42.6597 41.0157 38.6194 45.8083 33.9383 49.6535C33.9383 44.5265 33.6596 39.6225 33.1024 34.9413C32.5451 30.2602 31.8485 27.1116 31.0126 25.4955C29.7308 28.7277 26.5822 33.8825 21.5667 40.96C21.5667 40.5141 21.2323 39.0931 20.5636 36.6968C19.8949 34.3005 18.6688 30.9011 16.8856 26.4986C15.1023 22.0961 13.0125 18.2787 10.6162 15.0465C11.062 22.0125 10.1425 30.6503 7.85763 40.96C6.13007 48.929 5.26629 55.1984 5.26629 59.7681V59.7681ZM9.44588 61.6907C9.44588 53.5545 10.5883 46.2262 12.8731 39.7061L14.2106 35.7773L15.5481 39.2045C16.6069 42.3253 18.4459 46.895 21.0651 52.9136C22.1797 51.2418 23.545 49.1798 25.1611 46.7278L29.09 40.4584V44.8888C29.09 48.5668 29.7308 52.3284 31.0126 56.1737C33.186 55.0591 35.0807 53.9167 36.6968 52.7464C38.3129 51.5761 39.5111 50.573 40.2913 49.7371C41.0715 48.9012 42.0746 47.7866 43.3006 46.3934L45.5576 43.8857L46.0591 46.5606C47.2294 53.1922 46.6721 59.2666 44.3873 64.7836C44.1644 65.3409 43.8021 65.6196 43.3006 65.6196C43.0777 65.6196 42.9105 65.5638 42.799 65.4524C42.0188 65.118 41.7959 64.5886 42.1303 63.8641C43.6349 59.796 44.1644 55.1148 43.7185 49.8207C40.4863 53.4987 36.1953 56.6474 30.8454 59.2666L29.5915 59.7681L29.09 58.4307C27.7525 54.7526 26.9723 51.6597 26.7494 49.152C25.0218 51.6597 23.4057 54.0003 21.9011 56.1737L20.5636 57.9291L19.5605 56.0065C17.1642 50.5452 15.3809 46.3934 14.2106 43.5513C12.8174 48.2325 12.1208 54.2789 12.1208 61.6907C12.1208 62.5824 11.675 63.0282 10.7833 63.0282C9.8917 63.0282 9.44588 62.5824 9.44588 61.6907V61.6907Z" fill="#2293D7"/>
</svg>
