<svg width="84" height="84" viewBox="0 0 84 84" fill="none" xmlns="http://www.w3.org/2000/svg">
<path d="M0.018576 55.087C-0.0928798 54.0839 0.297215 53.3037 1.18886 52.7464L79.5144 0.501511C79.9602 0.167144 80.4618 -3.8147e-05 81.0191 -3.8147e-05C81.5763 -3.8147e-05 82.0779 0.167144 82.5237 0.501511C83.3596 1.05879 83.7219 1.92257 83.6104 3.09286L70.5701 81.502C70.3472 82.2265 69.9013 82.8116 69.2326 83.2574C68.8425 83.4803 68.4246 83.5918 67.9787 83.5918C67.6444 83.5918 67.31 83.5361 66.9756 83.4246L41.6473 73.31L36.2974 82.2543C35.7402 83.146 34.96 83.5918 33.9569 83.5918C32.9538 83.5918 32.2014 83.146 31.6999 82.2543L22.0868 65.4524L1.69041 57.344C0.687311 56.8981 0.130032 56.1458 0.018576 55.087V55.087ZM8.21058 54.1675L24.0094 60.604C24.1209 60.7155 24.2602 60.7991 24.4274 60.8548L24.6782 61.022L68.7311 13.8762L8.21058 54.1675ZM26.6844 62.861L33.9569 75.567L76.0871 9.78021L26.6844 62.861ZM41.9817 68.0437C42.6504 68.1552 43.2077 68.2666 43.6535 68.3781L65.8053 77.406L76.2543 14.8793L41.9817 68.0437Z" fill="#2293D7"/>
</svg>
