<svg width="84" height="84" viewBox="0 0 84 84" fill="none" xmlns="http://www.w3.org/2000/svg">
<path d="M83.507 37.6165C81.4172 27.8641 72.7097 20.8982 62.9573 20.8982H61.2159C55.9914 5.57302 39.6213 -3.13449 23.9479 1.0451C15.5887 3.1349 8.97097 8.35939 4.44313 15.3253C0.26354 22.6396 -1.12968 30.9988 0.960111 39.0097C3.04991 47.3689 8.62272 54.3348 16.2853 58.5144C18.0267 59.5593 20.1165 59.211 21.1614 57.4695C22.2063 55.728 21.5097 53.6382 19.7682 52.5933C13.8471 49.4587 9.66754 43.8858 7.92599 37.2682C6.18452 30.9988 7.22942 24.7294 10.7124 18.8084C13.847 13.2355 19.4199 9.05596 25.6893 7.66282C38.5764 4.1798 52.16 12.1907 55.2947 25.0778C55.643 26.471 57.0362 27.8641 58.7777 27.8641H62.9573C69.575 27.8641 75.1478 32.392 76.541 39.0097C77.9342 46.6723 73.058 53.9866 65.7437 55.3797C64.0022 55.728 62.609 57.4695 62.9573 59.5593C63.3057 61.3008 64.6988 62.3457 66.4404 62.3457C66.7887 62.3457 66.7887 62.3457 67.1369 62.3457C78.2825 59.9076 85.5968 48.762 83.507 37.6165V37.6165ZM52.5084 55.7281H38.2281L48.6771 40.403C49.722 38.6615 49.3737 36.5717 47.6322 35.5268C45.8907 34.4819 43.8009 34.8302 42.756 36.5717L28.824 57.4697C28.1275 58.5146 28.1275 59.9078 28.824 60.9527C29.1724 61.9976 30.2173 62.6942 31.6104 62.6942H45.8906L35.4417 78.0193C34.3968 79.7608 34.7451 81.8506 36.4866 82.8955C37.1831 83.2438 37.8798 83.592 38.5764 83.592C39.6213 83.592 40.6662 82.8955 41.3627 82.1988L55.2947 61.3009C55.9913 60.256 55.9913 58.8627 55.2947 57.8178C54.5982 56.7729 53.9015 55.728 52.5084 55.728V55.7281Z" fill="#2293D7"/>
</svg>
