<svg width="57" height="78" viewBox="0 0 57 78" fill="none" xmlns="http://www.w3.org/2000/svg">
<path d="M51.8269 23.9072C52.3842 29.5914 50.3501 33.6038 45.7247 35.9444C49.347 36.8361 52.0777 38.4522 53.9167 40.7927C55.7558 43.1333 56.4523 46.4491 56.0065 50.7402C55.7836 52.9693 55.2821 54.9198 54.5019 56.5916C53.7217 58.2634 52.7186 59.6288 51.4926 60.6876C50.2666 61.7464 48.7619 62.6659 46.9786 63.4461C45.1953 64.2263 43.3006 64.7557 41.2944 65.0344C39.2882 65.313 37.0312 65.5638 34.5234 65.7867V77.6567H27.3345V65.9539C24.8268 65.9539 22.932 65.926 21.6503 65.8703V77.6567H14.4614V65.7867C13.9041 65.7867 13.0682 65.7588 11.9536 65.7031C10.8391 65.6474 9.97529 65.6474 9.36229 65.7031H0L1.50465 57.1767H6.68735C8.192 57.1767 9.08365 56.3965 9.36229 54.8362V36.028H10.1146C9.8917 36.028 9.64093 36.028 9.36229 36.028V22.5697C8.97219 20.5078 7.57899 19.4768 5.18269 19.4768H0V11.7864L9.94743 11.87C11.8979 11.87 13.4026 11.8421 14.4614 11.7864V-7.81283e-05H21.6503V11.5356C24.158 11.4799 26.0528 11.452 27.3345 11.452V-7.81283e-05H34.5234V11.7864C36.9755 12.0093 39.1488 12.3715 41.0436 12.8731C42.9383 13.3746 44.6938 14.0712 46.3099 14.9629C47.926 15.8545 49.2077 17.0527 50.1551 18.5573C51.1025 20.062 51.6598 21.8453 51.8269 23.9072V23.9072ZM41.7959 49.3191C41.7959 48.2045 41.573 47.2293 41.1272 46.3934C40.6814 45.5575 40.0962 44.833 39.3718 44.22C38.6473 43.607 37.7556 43.1333 36.6968 42.7989C35.638 42.4646 34.6349 42.1581 33.6875 41.8794C32.7401 41.6008 31.5698 41.4615 30.1767 41.4615C28.7835 41.4615 27.7246 41.4336 27.0002 41.3779C26.2757 41.3222 25.2726 41.3222 23.9909 41.3779C22.7091 41.4336 21.9568 41.4615 21.7339 41.4615V57.2603C22.0125 57.2603 22.5977 57.2603 23.4893 57.2603C24.381 57.2603 25.1333 57.2603 25.7463 57.2603C26.3593 57.2603 27.1673 57.2325 28.1704 57.1767C29.1736 57.121 30.0931 57.0653 30.929 57.0096C31.7649 56.9538 32.6565 56.8145 33.6039 56.5916C34.5513 56.3687 35.4151 56.1458 36.1953 55.9229C36.9755 55.7 37.6999 55.3934 38.3687 55.0034C39.0374 54.6133 39.6504 54.1396 40.2077 53.5823C40.765 53.025 41.155 52.412 41.378 51.7433C41.6009 51.0745 41.7402 50.2665 41.7959 49.3191V49.3191ZM38.5358 27.1673C38.5358 26.1084 38.3408 25.1889 37.9507 24.4087C37.5606 23.6286 37.0869 22.9877 36.5296 22.4861C35.9724 21.9846 35.22 21.5388 34.2727 21.1487C33.3253 20.7586 32.4615 20.5078 31.6813 20.3963C30.9011 20.2849 29.9537 20.1456 28.8392 19.9784C27.7246 19.8112 26.833 19.7833 26.1642 19.8948C25.4955 20.0062 24.6317 20.0062 23.5729 19.8948C22.5141 19.7833 21.9011 19.8112 21.7339 19.9784V34.2726C21.9011 34.2726 22.4583 34.2726 23.4057 34.2726C24.3531 34.2726 25.0776 34.2726 25.5791 34.2726C26.0807 34.2726 26.833 34.2447 27.8361 34.189C28.8392 34.1333 29.703 34.0497 30.4274 33.9382C31.1519 33.8268 31.9599 33.6596 32.8516 33.4367C33.7432 33.2137 34.4956 32.9351 35.1086 32.6007C35.7216 32.2664 36.3067 31.8484 36.864 31.3469C37.4213 30.8453 37.8392 30.2323 38.1179 29.5078C38.3965 28.7834 38.5358 28.0032 38.5358 27.1673V27.1673Z" fill="#2293D7"/>
</svg>
