<svg width="84" height="84" viewBox="0 0 84 84" fill="none" xmlns="http://www.w3.org/2000/svg">
<path d="M0 74.481C0 71.8618 0.91951 69.6327 2.75853 67.7937L24.4924 46.0598C22.0961 41.4901 20.898 36.5861 20.898 31.3476C20.898 22.7655 23.9351 15.3816 30.0095 9.1958C36.0838 3.01 43.4956 -0.0550336 52.2449 0.000694275C60.9942 0.0564222 68.406 3.12146 74.4803 9.1958C80.5547 15.2701 83.5918 22.6819 83.5918 31.4312C83.5918 40.1805 80.5547 47.5644 74.4803 53.5831C68.406 59.6017 60.9942 62.6388 52.2449 62.6946C47.0065 62.6946 42.1024 61.4964 37.5327 59.1001L15.7989 80.834C13.9598 82.673 11.7307 83.5925 9.11151 83.5925C6.60375 83.5925 4.45823 82.7009 2.67494 80.9176C0.891646 79.1343 0 76.9888 0 74.481V74.481ZM4.59755 74.3974C4.59755 75.6234 5.04337 76.7101 5.93502 77.6575C6.82667 78.6049 7.91336 79.0507 9.1951 78.995C10.4768 78.9393 11.5914 78.4656 12.5388 77.5739L33.6039 56.5088C31.0962 54.6698 28.9228 52.4964 27.0838 49.9886L6.01861 71.0538C5.07124 72.0011 4.59755 73.1157 4.59755 74.3974V74.3974ZM26.1642 31.3476C26.1642 38.5365 28.6999 44.6945 33.7711 49.8214C38.8423 54.9484 45.0003 57.484 52.2449 57.4283C59.4895 57.3726 65.6475 54.8369 70.7187 49.8214C75.7899 44.8059 78.3255 38.648 78.3255 31.3476C78.3255 24.0473 75.7899 17.8893 70.7187 12.8738C65.6475 7.85833 59.4895 5.32271 52.2449 5.26698C45.0003 5.21125 38.8423 7.74687 33.7711 12.8738C28.6999 18.0008 26.1642 24.1587 26.1642 31.3476V31.3476ZM33.9383 31.3476C33.9383 26.3321 35.7494 22.0411 39.3718 18.4745C42.9941 14.9079 47.2851 13.0967 52.2449 13.041C53.1365 13.041 53.5824 13.4868 53.5824 14.3785C53.5824 15.2701 53.1365 15.716 52.2449 15.716C47.8981 15.716 44.1922 17.2206 41.1272 20.2299C38.0622 23.2392 36.5575 26.9451 36.6132 31.3476C36.6132 32.2393 36.1674 32.6851 35.2758 32.6851C34.3841 32.6851 33.9383 32.2393 33.9383 31.3476V31.3476Z" fill="#2293D7"/>
</svg>
