<svg width="84" height="59" viewBox="0 0 84 59" fill="none" xmlns="http://www.w3.org/2000/svg">
<path d="M75.2326 -1.29233e-06H8.35918C3.75747 -1.29233e-06 0 3.76163 0 8.35918V50.1551C0 54.7526 3.75747 58.5143 8.35918 58.5143H75.2326C79.8302 58.5143 83.5918 54.7526 83.5918 50.1551V8.35918C83.5918 3.76163 79.8302 -1.29233e-06 75.2326 -1.29233e-06ZM75.2326 50.1551H8.35918V25.0775H75.2326V50.1551V50.1551ZM75.2326 12.5388H8.35918V8.35918H75.2326V12.5388ZM16.7184 33.8547V36.3624H19.2261V33.8547H16.7184ZM31.7649 38.866V41.378H36.7804V38.866H39.2882V36.3583H41.7959V33.8505H36.7804V36.3583H34.2685V38.866H31.7649V38.866ZM41.7959 41.378V38.866H39.284V41.378H41.7959ZM29.2571 41.378V38.866H24.2416V41.378H29.2571ZM31.7649 36.3583H34.2727V33.8505H29.2571V38.8619H31.7649V36.3583V36.3583ZM21.7297 38.866H24.2416V36.3583H26.7494V33.8505H21.7339V36.3583H19.2261V38.866H16.7184V41.378H21.7297V38.866V38.866Z" fill="#2293D7"/>
</svg>
