<svg width="63" height="84" viewBox="0 0 63 84" fill="none" xmlns="http://www.w3.org/2000/svg">
<path d="M0 60.1025V41.7959C0 39.6225 0.752327 37.7835 2.25698 36.2788C3.76163 34.7742 5.62852 33.994 7.85763 33.9382V23.4893C7.85763 16.9691 10.1425 11.4242 14.7122 6.85449C19.2818 2.28481 24.8268 -3.8147e-05 31.3469 -3.8147e-05C37.8671 -3.8147e-05 43.412 2.28481 47.9817 6.85449C52.5514 11.4242 54.8362 16.9691 54.8362 23.4893V33.9382C57.0096 33.9382 58.8765 34.7184 60.4369 36.2788C61.9973 37.8392 62.7496 39.6782 62.6939 41.7959V60.1025C62.6939 66.6227 60.409 72.1676 55.8393 76.7373C51.2697 81.307 45.7247 83.5918 39.2046 83.5918H23.4893C16.9691 83.5918 11.4242 81.307 6.85453 76.7373C2.28484 72.1676 0 66.6227 0 60.1025H0ZM5.26629 60.1025C5.26629 65.118 7.04958 69.409 10.6162 72.9756C14.1827 76.5422 18.4738 78.3534 23.4893 78.4091H39.2046C44.2201 78.4091 48.5111 76.5979 52.0777 72.9756C55.6443 69.3533 57.4555 65.0623 57.5112 60.1025V41.7959C57.5112 41.0157 57.2604 40.4027 56.7589 39.9569C56.2573 39.511 55.6164 39.2603 54.8362 39.2045H7.85763C7.07744 39.2045 6.43657 39.4553 5.93502 39.9569C5.43347 40.4584 5.21056 41.0714 5.26629 41.7959V60.1025V60.1025ZM13.0403 33.9382H18.3066V23.4893C18.3066 19.9227 19.5884 16.8576 22.1518 14.2942C24.7153 11.7307 27.7804 10.4489 31.3469 10.4489C34.9135 10.4489 37.9786 11.7307 40.542 14.2942C43.1055 16.8576 44.3873 19.9227 44.3873 23.4893V33.9382H49.6535V23.4893C49.6535 18.4738 47.8424 14.1827 44.2201 10.6161C40.5978 7.04954 36.3067 5.26625 31.3469 5.26625C26.3872 5.26625 22.0961 7.04954 18.4738 10.6161C14.8515 14.1827 13.0403 18.4738 13.0403 23.4893V33.9382V33.9382ZM20.898 33.9382H41.7959V23.4893C41.7959 20.5914 40.7928 18.1115 38.7866 16.0496C36.7804 13.9877 34.3005 12.9846 31.3469 13.0403C28.3934 13.096 25.9135 14.0991 23.9073 16.0496C21.9011 18.0001 20.898 20.48 20.898 23.4893V33.9382V33.9382ZM26.1642 54.8362C26.1642 53.443 26.6658 52.217 27.6689 51.1582C28.672 50.0993 29.898 49.5978 31.3469 49.6535C32.7959 49.7092 34.0219 50.2108 35.025 51.1582C36.0281 52.1055 36.5575 53.3316 36.6132 54.8362C36.6132 56.3966 36.0002 58.7372 34.7742 61.8579C33.994 64.1428 32.8516 65.2852 31.3469 65.2852C29.8423 65.2852 28.6999 64.1428 27.9197 61.8579C26.7494 58.7372 26.1642 56.3966 26.1642 54.8362V54.8362Z" fill="#2293D7"/>
</svg>
