<svg width="58" height="84" viewBox="0 0 58 84" fill="none" xmlns="http://www.w3.org/2000/svg">
<path d="M0 41.7959C0 35.0528 2.3963 29.1178 7.1889 23.9908L10.7833 4.26318C11.0063 3.03716 11.5914 2.03406 12.5388 1.25387C13.4861 0.473678 14.6286 0.0557203 15.966 -7.62939e-06H36.864C38.09 -7.62939e-06 39.1767 0.41795 40.1241 1.25387C41.0715 2.08979 41.6845 3.09289 41.9631 4.26318L45.7247 24.6596C48.9012 28.2262 50.9074 32.2386 51.7433 36.6968L51.9105 36.6132C52.022 36.5575 52.1334 36.5296 52.2449 36.5296C53.6381 36.5296 54.8641 37.059 55.9229 38.1179C56.9818 39.1767 57.5112 40.4027 57.5112 41.7959C57.5112 43.1891 56.9818 44.4151 55.9229 45.474C54.8641 46.5328 53.6381 47.0343 52.2449 46.9786C52.1334 46.9786 52.022 46.9786 51.9105 46.9786L51.7433 46.895C50.796 51.5762 48.6783 55.7 45.3904 59.2666L41.6287 79.3286C41.4058 80.5547 40.8485 81.5578 39.9569 82.3379C39.0652 83.1181 37.9507 83.5361 36.6132 83.5918H15.7153C14.3778 83.5918 13.2632 83.1739 12.3716 82.3379C11.4799 81.502 10.8948 80.4989 10.6162 79.3286L6.85453 59.2666C2.28484 54.2511 0 48.4275 0 41.7959H0ZM5.26629 41.7959C5.26629 47.5359 7.30035 52.4678 11.3685 56.5917C15.4366 60.7155 20.3685 62.7496 26.1642 62.6939C31.9599 62.6381 36.864 60.6041 40.8764 56.5917C44.8888 52.5793 46.9507 47.6473 47.0622 41.7959C47.1737 35.9445 45.1117 31.0126 40.8764 27.0002C36.6411 22.9877 31.737 20.9537 26.1642 20.898C20.5915 20.8422 15.6595 22.8763 11.3685 27.0002C7.07744 31.124 5.04337 36.0559 5.26629 41.7959V41.7959ZM7.85763 41.7959C7.85763 41.0157 8.10841 40.4027 8.60996 39.9569C9.11151 39.5111 9.72452 39.2603 10.449 39.2046C11.1734 39.1488 11.8143 39.3996 12.3716 39.9569C12.9289 40.5142 13.1518 41.1272 13.0403 41.7959C12.9289 42.4646 12.706 43.0777 12.3716 43.6349C12.0372 44.1922 11.3964 44.443 10.449 44.3873C9.50161 44.3315 8.8886 44.0808 8.60996 43.6349C8.33132 43.1891 8.08054 42.5761 7.85763 41.7959V41.7959ZM12.3716 52.83C12.3716 52.1056 12.6224 51.4926 13.1239 50.991C13.6255 50.4895 14.2663 50.2665 15.0465 50.3223C15.8267 50.378 16.4397 50.6009 16.8856 50.991C17.3314 51.3811 17.5821 51.9941 17.6379 52.83C17.6936 53.666 17.4428 54.279 16.8856 54.6691C16.3283 55.0591 15.7153 55.3378 15.0465 55.505C14.3778 55.6722 13.7369 55.3935 13.1239 54.6691C12.5109 53.9446 12.2601 53.3316 12.3716 52.83ZM12.3716 30.6782C12.3716 29.9537 12.6224 29.3407 13.1239 28.8392C13.6255 28.3376 14.2663 28.0869 15.0465 28.0869C15.8267 28.0869 16.4397 28.3376 16.8856 28.8392C17.3314 29.3407 17.5821 29.9537 17.6379 30.6782C17.6936 31.4027 17.4428 32.0435 16.8856 32.6008C16.3283 33.1581 15.7153 33.381 15.0465 33.2695C14.3778 33.1581 13.7369 32.9352 13.1239 32.6008C12.5109 32.2664 12.2601 31.6256 12.3716 30.6782ZM13.0403 64.2821L15.7153 78.4091H36.6132L39.2046 64.2821C35.0807 66.6784 30.7339 67.8766 26.1642 67.8766C21.5946 67.8766 17.2199 66.6784 13.0403 64.2821V64.2821ZM13.3747 19.2261C17.4986 16.8855 21.8453 15.7153 26.415 15.7153C30.9847 15.7153 35.3593 16.8855 39.5389 19.2261L36.864 5.26628H15.966L13.3747 19.2261ZM23.4893 57.4276C23.4893 56.7031 23.7401 56.0901 24.2416 55.5886C24.7432 55.087 25.3841 54.8362 26.1642 54.8362C26.9444 54.8362 27.5574 55.087 28.0033 55.5886C28.4491 56.0901 28.6999 56.7031 28.7556 57.4276C28.8113 58.152 28.5605 58.7929 28.0033 59.3502C27.446 59.9075 26.833 60.1582 26.1642 60.1025C25.4955 60.0468 24.8546 59.796 24.2416 59.3502C23.6286 58.9044 23.3778 58.2635 23.4893 57.4276ZM23.4893 41.7959C23.4893 41.0157 23.7679 40.4027 24.3252 39.9569L37.8671 28.7556C38.3129 28.4212 38.703 28.4491 39.0374 28.8392C39.3718 29.2293 39.4275 29.6194 39.2046 30.0095L32.8516 37.8671L27.9197 43.7185C27.4738 44.1643 26.8887 44.3873 26.1642 44.3873C25.4398 44.3873 24.7989 44.1365 24.2416 43.6349C23.6844 43.1334 23.4336 42.5204 23.4893 41.7959V41.7959ZM23.4893 26.0806C23.4893 25.3562 23.7401 24.7432 24.2416 24.2416C24.7432 23.7401 25.3841 23.4893 26.1642 23.4893C26.9444 23.4893 27.5574 23.7401 28.0033 24.2416C28.4491 24.7432 28.6999 25.3562 28.7556 26.0806C28.8113 26.8051 28.5605 27.446 28.0033 28.0033C27.446 28.5605 26.833 28.8113 26.1642 28.7556C25.4955 28.6999 24.8546 28.4491 24.2416 28.0033C23.6286 27.5574 23.3778 26.9166 23.4893 26.0806ZM34.607 52.83C34.607 52.1056 34.8578 51.4926 35.3593 50.991C35.8609 50.4895 36.446 50.2665 37.1148 50.3223C37.7835 50.378 38.4244 50.6009 39.0374 50.991C39.6504 51.3811 39.929 52.022 39.8733 52.9136C39.8733 53.5824 39.5947 54.1675 39.0374 54.6691C38.4801 55.1706 37.8392 55.4492 37.1148 55.505C36.3903 55.5607 35.8052 55.2821 35.3593 54.6691C34.9135 54.056 34.6627 53.443 34.607 52.83ZM39.2046 41.7959C39.2046 41.0157 39.4553 40.4027 39.9569 39.9569C40.4584 39.5111 41.0715 39.2603 41.7959 39.2046C42.5204 39.1488 43.1334 39.3996 43.6349 39.9569C44.1365 40.5142 44.3873 41.1272 44.3873 41.7959C44.3873 42.4646 44.1365 43.0777 43.6349 43.6349C43.1334 44.1922 42.5204 44.443 41.7959 44.3873C41.0715 44.3315 40.4584 44.0808 39.9569 43.6349C39.4553 43.1891 39.2046 42.5761 39.2046 41.7959Z" fill="white"/>
</svg>
